<svg width="840" height="108" viewBox="0 0 840 108" fill="none" xmlns="http://www.w3.org/2000/svg">
<g opacity="0.1">
<mask id="mask0_1_3225" style="mask-type:alpha" maskUnits="userSpaceOnUse" x="0" y="0" width="840" height="108">
<rect y="108" width="108" height="840" transform="rotate(-90 0 108)" fill="#D9D9D9"/>
</mask>
<g mask="url(#mask0_1_3225)">
<path d="M1006.9 -360.327H-103.998V677.69H1006.9V-360.327Z" fill="#E5A57A"/>
<mask id="mask1_1_3225" style="mask-type:luminance" maskUnits="userSpaceOnUse" x="-104" y="-361" width="1111" height="1039">
<path d="M1006.9 -360.327H-104V677.69H1006.9V-360.327Z" fill="white"/>
</mask>
<g mask="url(#mask1_1_3225)">
<path d="M31.1691 -17.0747C31.1691 -17.4692 31.1469 -17.8636 31.1246 -18.2373V-18.2581C30.7469 -26.2093 28.2696 -31.2125 17.9938 -32.2505C0.708191 -33.984 -77.9435 -34.7625 -90.9744 -33.0291C-95.6624 -32.4062 -99.2506 -33.0291 -99.7505 -13.1095C-99.7505 -13.0057 -99.7505 -12.9123 -99.7505 -12.8085C-99.7727 -12.1027 -99.7838 -11.3968 -99.7838 -10.7013C-99.7838 -10.4937 -99.7838 -10.2861 -99.7838 -10.0889C-99.906 8.34631 -96.64 22.1208 -85.4643 22.1208C-73.6888 22.1208 15.7387 22.5049 21.2487 22.1208C24.9258 21.8613 28.0474 21.5084 29.6471 15.5605C29.6916 15.3944 29.736 15.2284 29.7804 15.0519C29.7804 15.0208 29.8027 14.9792 29.8027 14.9481C30.1359 13.5571 30.3914 11.8963 30.5692 9.88256C30.5692 9.88256 30.5581 9.88256 30.547 9.88256C30.7358 7.64045 30.8136 4.98312 30.7803 1.80679C30.7025 -3.82964 31.058 -8.91593 31.1691 -13.3483C31.1691 -13.6181 31.1802 -13.888 31.1913 -14.1579C31.1913 -14.3032 31.1913 -14.4486 31.1913 -14.5939C31.1913 -14.9053 31.1913 -15.2063 31.1913 -15.5073C31.1913 -15.6215 31.1913 -15.7357 31.1913 -15.8499C31.1913 -16.1821 31.1913 -16.5142 31.1913 -16.8464C31.1913 -16.9294 31.1913 -17.0021 31.1913 -17.0851L31.1691 -17.0747Z" fill="#A0643C"/>
<path d="M315.915 -12.4661C315.915 -12.7049 315.915 -12.9436 315.915 -13.1824C315.915 -13.608 315.893 -14.0335 315.882 -14.4488C315.882 -14.4695 315.882 -14.4799 315.882 -14.5006C315.871 -14.9262 315.849 -15.3518 315.838 -15.767C315.838 -15.8085 315.838 -15.8501 315.838 -15.8916C315.815 -16.2964 315.793 -16.7012 315.771 -17.0957C315.771 -17.0957 315.771 -17.1164 315.771 -17.1268C315.571 -20.0955 315.204 -22.566 314.593 -24.1334C311.838 -31.2958 310.594 -32.4065 287.787 -32.4272C264.992 -32.448 205.136 -32.5933 200.871 -32.4272C194.661 -32.1781 193.372 -30.2993 193.316 -22.2962C193.316 -21.1543 193.316 -19.888 193.35 -18.4867C193.594 -7.26569 193.838 17.8751 197.105 20.1899C200.359 22.5046 231.431 22.9302 257.982 23.0133C284.532 23.0963 311.338 24.2589 313.338 16.5257C313.338 16.5049 313.338 16.4842 313.349 16.4634C313.349 16.4634 313.349 16.4634 313.349 16.453C313.727 14.979 314.105 12.8615 314.46 10.3391C314.46 10.3391 314.46 10.3391 314.449 10.3391C315.215 4.72343 315.826 -2.83333 315.915 -9.6012C315.915 -9.97488 315.915 -10.3382 315.915 -10.7015C315.915 -10.8053 315.915 -10.9091 315.915 -11.0129C315.915 -11.3139 315.915 -11.6254 315.915 -11.9264C315.915 -12.1028 315.915 -12.2793 315.915 -12.4661Z" fill="#A0643C"/>
<path d="M448.343 -5.32452C448.188 -8.35553 448.121 -11.1167 448.021 -13.639C447.499 -27.5692 446.288 -33.9427 426.547 -34.7627C403.252 -35.728 350.895 -37.4719 335.109 -34.7627C329.044 -33.7247 328.844 -29.5207 328.844 -18.6112C328.844 -17.8845 328.844 -17.1268 328.844 -16.3379C328.844 -15.8604 328.844 -15.3621 328.844 -14.8639V-14.7809C328.844 -2.252 329.044 15.4877 333.854 18.2696C338.864 21.1657 421.282 21.1657 431.047 19.8163C438.523 18.7782 445.266 16.1521 447.566 6.12481C447.588 6.03139 447.61 5.94835 447.632 5.86531C447.632 5.86531 447.632 5.86528 447.621 5.87566C448.288 2.85503 448.554 -0.819546 448.332 -5.31416L448.343 -5.32452Z" fill="#A0643C"/>
<path d="M186.85 -20.2094C186.85 -20.2094 186.85 -20.2821 186.85 -20.3132C186.839 -20.6973 186.816 -21.0813 186.783 -21.4446C186.783 -21.4758 186.783 -21.5069 186.783 -21.5484C186.328 -27.735 184.339 -31.8663 179.062 -32.0532C167.787 -32.4476 53.564 -32.6345 46.3098 -32.0532C40.1776 -31.5653 38.6002 -27.9115 38.5224 -23.1574C38.4558 -18.9742 39.5666 -13.919 39.7999 -9.39327C39.7999 -9.36213 39.7999 -9.3206 39.7999 -9.28946C39.8222 -8.86388 39.8333 -8.43829 39.8333 -7.99194C39.8333 -7.89852 39.8333 -7.81547 39.8333 -7.72205C39.8333 -7.21342 39.8333 -6.69441 39.8111 -6.16502C39.8111 -6.15464 39.8111 -6.13391 39.8111 -6.12352C39.7777 -4.98171 39.7111 -3.78796 39.6333 -2.5631V-2.57349C39.0668 6.55067 38.0114 17.263 46.3098 20.6885C56.83 25.0378 133.982 21.8926 156.778 22.3078C179.573 22.7126 183.584 22.7126 185.083 4.73415C185.717 -2.79147 186.728 -10.3898 186.883 -16.7009C186.883 -16.8462 186.883 -17.0019 186.883 -17.1473C186.883 -17.3756 186.883 -17.604 186.883 -17.8324C186.883 -18.0815 186.883 -18.3306 186.883 -18.5693C186.883 -18.7043 186.883 -18.8496 186.883 -18.9949C186.883 -19.4101 186.872 -19.8046 186.85 -20.2094Z" fill="#A0643C"/>
<path d="M-90.9748 -36.6929C-95.6628 -36.0701 -99.2511 -36.6929 -99.751 -16.7733C-100.251 3.14623 -97.2514 18.4155 -85.4759 18.4155C-73.7003 18.4155 15.7271 18.7995 21.2372 18.4155C26.7472 18.0314 31.0131 17.4397 30.7576 -1.88816C30.5021 -21.216 35.2678 -34.1809 17.9822 -35.9247C0.696617 -37.6582 -77.9551 -38.4367 -90.986 -36.6929H-90.9748Z" fill="#C86C45"/>
<path d="M46.3014 -35.7274C34.8036 -34.8035 39.2916 -22.7729 39.7915 -13.0986C40.2914 -3.4243 35.7812 12.6234 46.3014 16.9727C56.8216 21.322 133.974 18.1768 156.769 18.592C179.565 18.9969 183.575 18.9969 185.075 1.01842C186.575 -16.96 190.33 -35.3329 179.065 -35.717C167.789 -36.1114 53.5667 -36.2983 46.3125 -35.717L46.3014 -35.7274Z" fill="#AE7059"/>
<path d="M200.85 -36.0912C193.763 -35.8005 193.085 -33.4131 193.329 -22.1921C193.574 -10.9711 193.818 14.1696 197.084 16.4844C200.339 18.7992 231.411 19.2248 257.961 19.3078C284.512 19.3908 311.318 20.5534 313.318 12.8202C315.317 5.08696 317.328 -20.6351 314.573 -27.787C311.818 -34.9493 310.574 -36.06 287.767 -36.0808C264.971 -36.1015 205.116 -36.2469 200.85 -36.0808V-36.0912Z" fill="#C76B44"/>
<path d="M335.116 -38.4369C328.661 -37.3262 328.85 -32.624 328.85 -20.064C328.85 -7.50397 328.85 11.6474 333.86 14.5435C338.87 17.4396 421.288 17.4396 431.053 16.0902C440.818 14.7407 449.338 10.6717 448.339 -9.04024C447.328 -28.7626 449.838 -37.4715 426.543 -38.4369C403.247 -39.4022 350.89 -41.1461 335.105 -38.4369H335.116Z" fill="#C55C46"/>
<g style="mix-blend-mode:multiply">
<path d="M-85.4405 18.343C-73.6649 18.343 15.7514 18.7271 21.2726 18.343C25.8717 18.0213 29.5932 17.5542 30.5597 6.18788C22.6612 7.95251 -1.06762 12.5094 -31.684 12.1149C-68.6992 11.6478 -71.5209 11.1704 -75.0536 9.60296C-78.5751 8.03556 -81.5745 8.81406 -89.6841 8.03555C-92.628 7.7449 -95.5719 6.45777 -98.127 4.93188C-96.1829 13.1737 -92.2947 18.3534 -85.4516 18.3534L-85.4405 18.343Z" fill="#AE7059"/>
<path d="M46.3143 16.8896C56.8345 21.2392 133.987 18.1042 156.782 18.509C174.479 18.8308 180.855 18.8931 183.522 10.4845C180.622 11.4811 177.001 12.3531 172.624 12.5815C160.459 13.2148 68.4434 16.1941 55.046 14.938C47.1586 14.2009 42.7039 11.8237 40.2266 9.87207C41.1819 12.9967 43.0038 15.5297 46.3143 16.8896Z" fill="#AE7059"/>
<path d="M257.994 19.2255C284.544 19.3086 311.35 20.4712 313.35 12.727C313.728 11.2529 314.105 9.13524 314.461 6.61267C306.407 10.4952 295.531 14.5541 285.633 14.253C266.948 13.6821 214.769 13.2046 205.604 12.7374C200.671 12.4883 197.228 11.0868 195.006 9.73732C195.517 13.2461 196.195 15.7479 197.117 16.4123C200.371 18.7376 231.443 19.1529 257.994 19.2359V19.2255Z" fill="#AE7059"/>
<path d="M333.891 14.4704C338.901 17.3665 421.318 17.3665 431.083 16.0171C438.604 14.9791 445.392 12.3217 447.647 2.14917C443.736 6.13515 438.115 10.962 433.527 11.8027C425.773 13.2144 403.211 14.3147 398.8 12.4359C394.39 10.5467 380.993 12.4359 372.883 13.3805C364.774 14.3251 352.254 14.0137 349.788 13.2248C347.321 12.4359 344.5 10.8685 340.089 11.6574C337.401 12.1349 332.935 7.64028 329.869 4.05912C330.58 9.2492 331.791 13.2871 333.88 14.4912L333.891 14.4704Z" fill="#AE7059"/>
</g>
<g style="mix-blend-mode:multiply">
<path d="M74.2515 -0.155464C73.2517 0.187108 57.3325 2.20103 49.745 3.45712C42.1687 4.71322 40.2246 1.65085 40.2246 1.65085C40.2246 1.65085 46.9233 0.6335 49.5673 0.6335C52.2112 0.6335 79.3616 -1.8787 74.2515 -0.155464Z" fill="#AE7059"/>
</g>
<path d="M136.831 25.7332C127.843 24.6329 69.2545 24.9443 57.5567 24.4772C45.87 24.0101 40.0489 22.4323 39.5157 17.2526C38.9824 12.0626 38.7158 7.39148 38.5047 -3.70492C38.2826 -14.8013 34.9721 -25.358 35.1165 -12.0713C35.1165 -12.0713 36.083 20.9272 33.0502 23.0136C30.0064 25.1 -23.4057 24.6329 -23.228 25.1C-23.0502 25.5672 -36.2699 26.6674 -9.29728 27.612C17.6754 28.5566 42.3596 27.612 79.3748 27.612C116.39 27.612 145.84 26.8232 136.842 25.7229L136.831 25.7332Z" fill="#A0643C"/>
<path d="M320.874 -15.8707C320.874 -15.8707 321.285 16.0795 315.919 19.4115C310.553 22.7435 326.95 20.8647 327.483 11.4292C328.017 2.00396 319.552 -46.4818 320.874 -15.8811V-15.8707Z" fill="#A0643C"/>
<g style="mix-blend-mode:overlay" opacity="0.28">
<path d="M307.263 -6.27964C300.12 -6.62219 280.557 -10.359 291.399 -10.8677C302.242 -11.3763 309.118 -12.051 308.063 -15.5803C307.008 -19.1199 296.298 -24.8498 287.056 -25.3688C287.056 -25.3688 278.257 -15.2896 240.965 -24.1439C207.238 -32.147 203.872 -23.7702 211.015 -22.3793C218.158 -20.9987 201.494 -17.8431 200.172 -18.3621C198.85 -18.8812 201.683 -10.058 216.491 -10.0891C231.3 -10.1203 214.458 -8.60478 201.228 -7.49411C188.008 -6.39381 227.145 4.14206 267.859 2.88606C308.585 1.63006 314.395 -5.92672 307.263 -6.27964Z" fill="white"/>
<path d="M170.145 -27.5589C160.247 -26.2095 56.9669 -23.4484 52.7344 -18.2687C48.5019 -13.0993 42.1586 -4.11011 56.056 -5.8436C69.9645 -7.57709 115.667 -13.5353 166.435 -12.0613C166.435 -12.0613 162.736 -6.94392 138.451 -3.69493C114.167 -0.456314 63.8434 5.79257 62.7769 9.52943C61.7216 13.2663 86.5724 8.61597 112.679 6.63335C138.785 4.65074 180.71 5.31506 180.032 -2.45968C179.355 -10.2344 180.032 -28.9083 170.134 -27.5485L170.145 -27.5589Z" fill="white"/>
<path d="M417.13 -28.6695C393.335 -28.4308 339.911 -27.372 338.334 -25.8773C336.745 -24.3929 338.867 -19.1405 341.511 -15.8708C344.155 -12.601 429.828 -10.4627 428.772 -7.76385C427.717 -5.06501 360.019 -5.89542 352.087 -6.89192C344.155 -7.88842 344.688 6.05214 349.976 6.62305C355.264 7.19396 412.909 5.3982 426.661 4.87919C440.414 4.36018 440.703 -8.04411 441.47 -15.8708C442.236 -23.6974 436.16 -28.8564 417.141 -28.6695H417.13Z" fill="white"/>
<path d="M19.4299 -15.8696C6.21014 -15.9008 0.922256 -23.8209 0.922256 -23.8209C0.922256 -23.8209 -28.1056 -26.9038 -47.2019 -28.6684C-66.3094 -30.433 -87.3943 -28.8552 -91.0936 -21.1947C-94.7929 -13.5341 -96.9147 -1.86681 -91.0936 -3.69372C-85.2725 -5.52063 -60.4216 -15.8281 -54.0784 -15.8593C-47.7352 -15.8904 -33.7711 -12.2781 -33.7711 -12.2781C-17.5853 -12.5999 -7.53169 -12.2781 -7.53169 -12.2781C-7.53169 -12.2781 -10.4978 -9.57926 -24.1952 -8.37516C-37.8926 -7.17106 -83.9283 3.64506 -76.9407 3.76962C-69.9421 3.89418 -15.4746 4.77651 4.09943 1.50675C23.6624 -1.763 32.6607 -15.8385 19.441 -15.8696H19.4299Z" fill="white"/>
</g>
<path d="M587.056 -17.0753C587.056 -17.4698 587.034 -17.8642 587.011 -18.2379V-18.2587C586.634 -26.2099 584.156 -31.2131 573.881 -32.2512C556.595 -33.9846 477.943 -34.7632 464.912 -33.0297C460.224 -32.4069 456.636 -33.0297 456.136 -13.1101C456.136 -13.0063 456.136 -12.9129 456.136 -12.8091C456.125 -12.1033 456.103 -11.3974 456.103 -10.7019C456.103 -10.4943 456.103 -10.2867 456.103 -10.0895C455.981 8.3457 459.247 22.1202 470.422 22.1202C482.198 22.1202 571.625 22.5042 577.135 22.1202C580.813 21.8607 583.934 21.5077 585.534 15.5599C585.578 15.3938 585.623 15.2277 585.667 15.0513C585.667 15.0201 585.678 14.9786 585.689 14.9475C586.023 13.5565 586.278 11.8957 586.456 9.88195C586.456 9.88195 586.445 9.88195 586.434 9.88195C586.623 7.63984 586.7 4.98251 586.667 1.80618C586.589 -3.83025 586.945 -8.91654 587.056 -13.3489C587.056 -13.6188 587.067 -13.8886 587.078 -14.1585C587.078 -14.3038 587.078 -14.4492 587.078 -14.5945C587.078 -14.9059 587.078 -15.2069 587.078 -15.5079C587.078 -15.6221 587.078 -15.7363 587.078 -15.8505C587.078 -16.1827 587.078 -16.5148 587.078 -16.847C587.078 -16.93 587.078 -17.0027 587.078 -17.0857L587.056 -17.0753Z" fill="#A0643C"/>
<path d="M871.8 -12.4667C871.8 -12.7055 871.8 -12.9442 871.8 -13.183C871.8 -13.6086 871.778 -14.0342 871.767 -14.4494C871.767 -14.4701 871.767 -14.4805 871.767 -14.5012C871.756 -14.9268 871.733 -15.3524 871.722 -15.7676C871.722 -15.8092 871.722 -15.8507 871.722 -15.8922C871.7 -16.297 871.678 -16.7018 871.656 -17.0963C871.656 -17.0963 871.656 -17.1171 871.656 -17.1274C871.456 -20.0962 871.089 -22.5666 870.478 -24.134C867.723 -31.2964 866.479 -32.4071 843.672 -32.4278C820.876 -32.4486 761.021 -32.5939 756.755 -32.4278C750.545 -32.1787 749.257 -30.2999 749.201 -22.2968C749.201 -21.1549 749.201 -19.8886 749.246 -18.4873C749.49 -7.2663 749.734 17.8745 753 20.1893C756.255 22.504 787.327 22.9296 813.878 23.0127C840.428 23.0957 867.234 24.2583 869.234 16.5251C869.234 16.5043 869.234 16.4835 869.245 16.4628C869.245 16.4628 869.245 16.4628 869.245 16.4524C869.623 14.9784 870.012 12.8609 870.356 10.3385C871.122 4.72282 871.733 -2.83394 871.822 -9.60181C871.822 -9.97549 871.822 -10.3388 871.822 -10.7021C871.822 -10.8059 871.822 -10.9097 871.822 -11.0135C871.822 -11.3146 871.822 -11.626 871.822 -11.927C871.822 -12.1035 871.822 -12.2799 871.822 -12.4667H871.8Z" fill="#A0643C"/>
<path d="M742.746 -20.21C742.746 -20.21 742.746 -20.2827 742.746 -20.3138C742.735 -20.6979 742.713 -21.0819 742.68 -21.4452C742.68 -21.4764 742.68 -21.5075 742.68 -21.5491C742.213 -27.7356 740.236 -31.8669 734.959 -32.0538C723.683 -32.4482 609.46 -32.6351 602.206 -32.0538C596.074 -31.5659 594.486 -27.9121 594.419 -23.158C594.352 -18.9748 595.463 -13.9196 595.696 -9.39388C595.696 -9.36274 595.696 -9.32121 595.696 -9.29007C595.719 -8.86449 595.73 -8.4389 595.73 -7.99255C595.73 -7.89913 595.73 -7.81608 595.73 -7.72266C595.73 -7.21403 595.73 -6.69502 595.708 -6.16563C595.708 -6.15525 595.708 -6.13452 595.708 -6.12413C595.674 -4.98232 595.608 -3.78857 595.53 -2.56371V-2.5741C594.963 6.55006 593.908 17.2624 602.206 20.6879C612.727 25.0372 689.879 21.892 712.674 22.3072C735.47 22.712 739.48 22.712 740.98 4.73354C741.613 -2.79208 742.635 -10.3904 742.78 -16.7015C742.78 -16.8469 742.78 -17.0025 742.78 -17.1479C742.78 -17.3762 742.78 -17.6046 742.78 -17.833C742.78 -18.0821 742.78 -18.3312 742.78 -18.5699C742.78 -18.7049 742.78 -18.8502 742.78 -18.9955C742.78 -19.4107 742.768 -19.8052 742.746 -20.21Z" fill="#A0643C"/>
<path d="M464.92 -36.6934C460.232 -36.0705 456.643 -36.6933 456.144 -16.7738C455.644 3.14574 458.643 18.415 470.419 18.415C482.194 18.415 571.622 18.799 577.132 18.415C582.642 18.0309 586.908 17.4392 586.652 -1.88865C586.397 -21.2165 591.162 -34.1814 573.877 -35.9252C556.591 -37.6587 477.939 -38.4372 464.909 -36.6934H464.92Z" fill="#AE7059"/>
<path d="M602.184 -35.7277C590.686 -34.8039 595.174 -22.7733 595.674 -13.099C596.174 -3.42467 591.664 12.6231 602.184 16.9724C612.704 21.3217 689.856 18.1765 712.652 18.5917C735.448 18.9965 739.458 18.9965 740.958 1.01805C742.458 -16.9604 746.212 -35.3333 734.948 -35.7174C723.672 -36.1118 609.449 -36.2986 602.195 -35.7174L602.184 -35.7277Z" fill="#C76B44"/>
<path d="M756.746 -36.0917C749.659 -35.801 748.981 -33.4136 749.237 -22.1926C749.481 -10.9716 749.725 14.1691 752.991 16.4839C756.246 18.7987 787.318 19.2243 813.869 19.3073C840.419 19.3903 867.225 20.5529 869.225 12.8197C871.225 5.08647 873.235 -20.6356 870.469 -27.7875C867.714 -34.9498 866.47 -36.0605 843.663 -36.0813C820.867 -36.102 761.012 -36.2473 756.746 -36.0813V-36.0917Z" fill="#CE886F"/>
<g style="mix-blend-mode:multiply">
<path d="M470.444 18.3426C482.22 18.3426 571.636 18.7266 577.157 18.3426C581.756 18.0208 585.478 17.5537 586.444 6.18739C578.546 7.95202 554.817 12.5089 524.201 12.1145C487.186 11.6473 484.364 11.1699 480.831 9.60247C477.31 8.03507 474.31 8.81357 466.201 8.03506C463.257 7.74441 460.313 6.45728 457.758 4.9314C459.702 13.1733 463.59 18.3529 470.433 18.3529L470.444 18.3426Z" fill="#AE7059"/>
<path d="M602.209 16.8896C612.729 21.2392 689.881 18.1042 712.677 18.509C730.373 18.8308 736.75 18.8931 739.416 10.4845C736.517 11.4811 732.895 12.3531 728.518 12.5815C716.354 13.2148 624.327 16.1941 610.94 14.938C603.053 14.2009 598.598 11.8237 596.121 9.87207C597.076 12.9967 598.898 15.5297 602.209 16.8896Z" fill="#AE7059"/>
<path d="M813.879 19.2255C840.429 19.3086 867.235 20.4712 869.235 12.727C869.612 11.2529 870.001 9.13524 870.346 6.61267C862.292 10.4952 851.416 14.5541 841.518 14.253C822.832 13.6821 770.654 13.2046 761.489 12.7374C756.556 12.4883 753.112 11.0868 750.891 9.73732C751.402 13.2461 752.079 15.7479 753.001 16.4123C756.256 18.7376 787.328 19.1529 813.879 19.2359V19.2255Z" fill="#AE7059"/>
</g>
<g style="mix-blend-mode:multiply">
<path d="M630.134 -0.155952C629.134 0.18662 613.204 2.20054 605.628 3.45663C598.052 4.71273 596.107 1.65036 596.107 1.65036C596.107 1.65036 602.806 0.633011 605.45 0.633011C608.094 0.633011 635.244 -1.87919 630.134 -0.155952Z" fill="#AE7059"/>
</g>
<path d="M692.723 25.7326C683.736 24.6323 625.147 24.9437 613.449 24.4766C601.763 24.0095 595.941 22.4317 595.408 17.252C594.875 12.0619 594.62 7.39087 594.397 -3.70553C594.175 -14.8019 590.865 -25.3586 591.009 -12.0719C591.009 -12.0719 591.976 20.9266 588.943 23.013C585.899 25.0994 532.487 24.6323 532.665 25.0994C532.842 25.5665 519.623 26.6668 546.595 27.6114C573.568 28.556 598.252 27.6114 635.267 27.6114C672.283 27.6114 701.732 26.8226 692.734 25.7223L692.723 25.7326Z" fill="#A0643C"/>
<g style="mix-blend-mode:overlay" opacity="0.28">
<path d="M863.158 -6.28025C856.015 -6.6228 836.452 -10.3596 847.294 -10.8683C858.136 -11.3769 865.013 -12.0516 863.957 -15.5809C862.902 -19.1205 852.193 -24.8504 842.95 -25.3694C842.95 -25.3694 834.152 -15.2902 796.859 -24.1445C763.132 -32.1476 759.766 -23.7708 766.909 -22.3799C774.052 -20.9993 757.389 -17.8437 756.067 -18.3628C754.745 -18.8818 757.578 -10.0586 772.386 -10.0898C787.194 -10.1209 770.342 -8.60539 757.122 -7.49472C743.902 -6.39442 783.039 4.14145 823.754 2.88545C864.48 1.62945 870.29 -5.92733 863.158 -6.28025Z" fill="white"/>
</g>
<g style="mix-blend-mode:overlay" opacity="0.28">
<path d="M726.04 -27.5593C716.142 -26.2099 612.862 -23.4487 608.629 -18.269C604.397 -13.0997 598.053 -4.11048 611.962 -5.84396C625.87 -7.57745 671.573 -13.5357 722.341 -12.0617C722.341 -12.0617 718.642 -6.94429 694.357 -3.69529C670.073 -0.45668 619.749 5.7922 618.683 9.52906C617.627 13.2659 642.478 8.6156 668.584 6.63299C694.691 4.65038 736.616 5.3147 735.938 -2.46005C735.261 -10.2348 735.938 -28.9087 726.04 -27.5489V-27.5593Z" fill="white"/>
</g>
<g style="mix-blend-mode:overlay" opacity="0.28">
<path d="M575.311 -15.8707C562.091 -15.9019 556.803 -23.822 556.803 -23.822C556.803 -23.822 527.786 -26.9049 508.679 -28.6695C489.571 -30.4341 468.487 -28.8563 464.787 -21.1958C461.088 -13.5352 458.966 -1.86791 464.787 -3.69482C470.608 -5.52173 495.459 -15.8292 501.802 -15.8604C508.146 -15.8915 522.11 -12.2792 522.11 -12.2792C538.296 -12.601 548.349 -12.2792 548.349 -12.2792C548.349 -12.2792 545.383 -9.58035 531.686 -8.37626C517.988 -7.17216 471.953 3.64396 478.94 3.76852C485.939 3.89309 540.406 4.77541 559.98 1.50566C579.543 -1.7641 588.542 -15.8396 575.322 -15.8707H575.311Z" fill="white"/>
</g>
<path d="M31.171 112.728C31.171 112.334 31.1488 111.94 31.1266 111.566V111.545C30.7489 103.594 28.2716 98.5907 17.9958 97.5527C0.710144 95.8192 -77.9416 95.0407 -90.9724 96.7846C-95.6604 97.4074 -99.2486 96.7846 -99.7486 116.704C-99.7486 116.808 -99.7486 116.901 -99.7486 117.005C-99.7708 117.711 -99.7819 118.417 -99.7819 119.112C-99.7819 119.32 -99.7819 119.528 -99.7819 119.725C-99.9041 138.16 -96.638 151.934 -85.4624 151.934C-73.6868 151.934 15.7406 152.318 21.2507 151.934C24.9278 151.675 28.0494 151.322 29.6491 145.374C29.6935 145.208 29.738 145.042 29.7824 144.866C29.7824 144.834 29.8046 144.793 29.8046 144.762C30.1379 143.371 30.3934 141.71 30.5711 139.696C30.5711 139.696 30.56 139.696 30.5489 139.696C30.7378 137.454 30.8155 134.797 30.7822 131.62C30.7044 125.984 31.0599 120.898 31.171 116.465C31.171 116.195 31.1821 115.926 31.1932 115.656C31.1932 115.51 31.1932 115.365 31.1932 115.22C31.1932 114.908 31.1932 114.607 31.1932 114.306C31.1932 114.192 31.1932 114.078 31.1932 113.964C31.1932 113.632 31.1932 113.299 31.1932 112.967C31.1932 112.884 31.1932 112.812 31.1932 112.728H31.171Z" fill="#A0643C"/>
<path d="M315.917 117.337C315.917 117.098 315.917 116.859 315.917 116.621C315.917 116.195 315.895 115.769 315.884 115.354C315.884 115.334 315.884 115.323 315.884 115.302C315.873 114.877 315.851 114.451 315.84 114.036C315.84 113.994 315.84 113.953 315.84 113.911C315.817 113.507 315.795 113.102 315.773 112.707C315.773 112.707 315.773 112.687 315.773 112.676C315.573 109.707 315.206 107.237 314.595 105.67C311.84 98.5073 310.596 97.3966 287.789 97.3759C264.994 97.3551 205.138 97.1994 200.872 97.3759C194.663 97.625 193.374 99.5038 193.318 107.507C193.318 108.649 193.318 109.915 193.352 111.316C193.596 122.537 193.84 147.678 197.106 149.993C200.361 152.308 231.433 152.733 257.984 152.816C284.534 152.899 311.34 154.062 313.34 146.329C313.34 146.308 313.34 146.287 313.351 146.266C313.351 146.266 313.351 146.266 313.351 146.256C313.729 144.782 314.107 142.665 314.462 140.142C314.462 140.142 314.462 140.142 314.451 140.142C315.217 134.526 315.828 126.97 315.917 120.202C315.917 119.828 315.917 119.465 315.917 119.102C315.917 118.998 315.917 118.894 315.917 118.79C315.917 118.489 315.917 118.178 315.917 117.877C315.917 117.7 315.917 117.524 315.917 117.337Z" fill="#A0643C"/>
<path d="M-18.1204 90.0581C-6.3449 90.0581 83.0714 90.4422 88.5926 90.0581C94.1027 89.6741 98.3685 89.0928 98.113 69.7545C98.0242 62.8102 98.5685 56.6963 98.524 51.6204C98.524 51.5166 98.524 51.4128 98.524 51.309C98.524 51.0806 98.5241 50.8419 98.513 50.6135C98.513 50.4682 98.513 50.3332 98.5018 50.1879C98.4907 49.8661 98.4796 49.5444 98.4574 49.233C98.4463 49.0357 98.4352 48.8385 98.4241 48.6517C98.413 48.4752 98.3907 48.2987 98.3796 48.1327C98.3685 47.9562 98.3463 47.7797 98.3241 47.6033C98.3019 47.4476 98.2908 47.2815 98.2686 47.1258C98.2352 46.8351 98.1908 46.5445 98.1463 46.2538C98.1241 46.1293 98.1019 45.9943 98.0797 45.8698C98.0464 45.6725 98.0019 45.4857 97.9686 45.2885C97.9464 45.1639 97.9131 45.029 97.8797 44.9044C97.8242 44.6553 97.7575 44.4062 97.6909 44.1674C97.6575 44.0636 97.6353 43.9702 97.602 43.8664C97.5354 43.638 97.4576 43.42 97.3798 43.2124C97.3465 43.1086 97.3021 43.0152 97.2687 42.9114C97.191 42.7038 97.1021 42.5066 97.0021 42.299C96.9688 42.2367 96.9466 42.1641 96.9133 42.1018C96.791 41.8527 96.6577 41.6035 96.5133 41.3648C96.4689 41.2921 96.4245 41.2195 96.38 41.1468C96.2689 40.9599 96.1467 40.7731 96.0134 40.5966C95.969 40.5344 95.9246 40.4721 95.8801 40.4202C95.7135 40.1918 95.5246 39.9738 95.3358 39.7559C95.3024 39.7143 95.2691 39.6832 95.2247 39.6417C95.058 39.4652 94.8803 39.2888 94.6915 39.1123C94.6359 39.0604 94.5915 39.0189 94.5359 38.967C94.0805 38.5725 93.5694 38.1988 93.0029 37.8667C92.9473 37.8355 92.8918 37.8044 92.8363 37.7732C92.5585 37.6175 92.2808 37.4722 91.9809 37.3269C91.9697 37.3269 91.9475 37.3165 91.9364 37.3061C91.6031 37.1504 91.2588 37.0155 90.9033 36.8806C90.8588 36.8702 90.8144 36.8494 90.7811 36.839C90.4478 36.7145 90.0923 36.6003 89.7368 36.4965C89.7035 36.4965 89.6702 36.4757 89.6257 36.4653C88.8148 36.237 87.9372 36.0501 86.9929 35.9048C86.9485 35.9048 86.904 35.8944 86.8596 35.884C86.3819 35.8114 85.882 35.7491 85.371 35.6972C68.0854 33.9533 -10.5663 33.1852 -23.5972 34.9187C-28.2852 35.5415 -31.8734 34.9187 -32.3733 54.8382C-32.3955 55.9074 -32.4177 56.9454 -32.4177 57.973C-32.4177 57.973 -32.4177 57.9938 -32.4177 58.0042C-32.5177 76.3563 -29.2405 90.0374 -18.0871 90.0374L-18.1204 90.0581Z" fill="#A0643C"/>
<path d="M107.136 58.5443C107.158 58.9388 107.169 59.354 107.169 59.7692C107.169 59.8833 107.169 59.9871 107.169 60.1013C107.169 60.5062 107.169 60.9317 107.158 61.3573C107.158 61.3573 107.158 61.3781 107.158 61.3885C107.158 61.8452 107.125 62.3123 107.103 62.7794C107.103 62.8832 107.103 62.9766 107.091 63.0804C107.069 63.5372 107.047 64.0043 107.014 64.4818C106.469 73.772 105.07 85.076 113.635 88.6157C124.155 92.965 201.307 89.8198 224.103 90.235C246.898 90.6398 250.897 90.6398 252.408 72.6613C252.941 66.3502 253.741 59.9871 254.075 54.3818C254.075 54.2884 254.075 54.195 254.086 54.0912C254.119 53.5411 254.141 53.0013 254.163 52.4615C254.163 52.3473 254.163 52.2332 254.175 52.119C254.197 51.4962 254.208 50.8837 254.219 50.2921V50.2505C254.219 49.69 254.219 49.1503 254.219 48.6209C254.219 48.4859 254.219 48.3406 254.219 48.2056C254.208 47.7489 254.186 47.3129 254.163 46.877C254.163 46.7732 254.163 46.6694 254.141 46.576C254.108 46.0673 254.064 45.5691 253.997 45.0812C253.986 44.967 253.964 44.8632 253.952 44.7594C253.908 44.3858 253.841 44.0121 253.786 43.6591C253.764 43.5242 253.741 43.3893 253.708 43.2647C253.63 42.8599 253.541 42.4758 253.441 42.1021C253.43 42.0606 253.419 42.0087 253.408 41.9672C253.297 41.5623 253.164 41.1887 253.03 40.8253C252.986 40.7112 252.941 40.6074 252.897 40.4932C252.786 40.2337 252.664 39.9742 252.542 39.7251C252.486 39.6212 252.442 39.5174 252.386 39.424C252.208 39.1126 252.019 38.8116 251.808 38.5417C251.764 38.4794 251.708 38.4275 251.653 38.3653C251.486 38.1576 251.297 37.95 251.109 37.7632C251.02 37.6801 250.942 37.6075 250.853 37.5245C250.664 37.3584 250.453 37.2027 250.242 37.0573C250.164 37.0054 250.098 36.9535 250.009 36.9016C249.72 36.7356 249.42 36.5799 249.098 36.4553C248.987 36.4138 248.876 36.3826 248.764 36.3411C248.52 36.2581 248.276 36.1854 248.009 36.1335C247.876 36.1024 247.742 36.0712 247.609 36.0505C247.276 35.9986 246.932 35.9571 246.565 35.9363C246.509 35.9363 246.465 35.9259 246.409 35.9155C235.134 35.5314 120.911 35.3342 113.646 35.9155C107.536 36.4034 105.936 40.0365 105.858 44.7802C105.792 48.9634 106.903 54.0186 107.136 58.5443C107.136 58.5443 107.136 58.5443 107.136 58.5547V58.5443Z" fill="#A0643C"/>
<path d="M380.671 84.443C381.682 80.5297 382.693 72.0283 383.093 63.6619C383.093 63.6204 383.093 63.5685 383.093 63.527C383.115 63.0391 383.137 62.5512 383.16 62.0737C383.16 61.9803 383.16 61.8973 383.16 61.8038C383.171 61.3679 383.193 60.9319 383.204 60.496C383.204 60.3714 383.204 60.2572 383.204 60.1327C383.204 59.7382 383.226 59.3334 383.226 58.9389C383.226 58.7936 383.226 58.6379 383.226 58.4926C383.226 58.1293 383.226 57.766 383.237 57.4131C383.237 57.247 383.237 57.0809 383.237 56.9044C383.237 56.5722 383.237 56.2401 383.237 55.9079C383.237 55.7315 383.237 55.555 383.237 55.3682C383.237 55.0568 383.237 54.7453 383.226 54.4443C383.226 54.2575 383.226 54.0603 383.215 53.8734C383.215 53.5931 383.204 53.3129 383.193 53.0326C383.193 52.8354 383.182 52.6382 383.171 52.4513C383.16 52.1918 383.149 51.9323 383.138 51.6728C383.138 51.4756 383.115 51.2783 383.104 51.0915C383.093 50.8528 383.071 50.614 383.06 50.3753C383.049 50.1781 383.026 49.9808 383.015 49.794C382.993 49.576 382.971 49.358 382.96 49.1504C382.938 48.9532 382.926 48.7664 382.904 48.5795C382.882 48.3823 382.86 48.1851 382.838 47.9982C382.815 47.8114 382.793 47.6245 382.771 47.4481C382.749 47.2716 382.715 47.0952 382.693 46.9291C382.66 46.7526 382.638 46.5761 382.604 46.3997C382.571 46.244 382.538 46.0986 382.515 45.9429C382.482 45.7769 382.449 45.6004 382.415 45.4447C382.382 45.3098 382.349 45.1852 382.315 45.0606C382.271 44.9049 382.238 44.7389 382.193 44.5935C382.171 44.5001 382.138 44.4275 382.104 44.334C382.049 44.168 382.004 44.0019 381.949 43.8566C379.194 36.7046 377.938 35.5835 355.143 35.5628C332.347 35.542 272.481 35.3967 268.226 35.5628C262.016 35.8119 260.727 37.6803 260.672 45.6627C260.672 46.8045 260.672 48.0709 260.716 49.4722C260.716 49.5552 260.716 49.6487 260.716 49.7317C260.716 50.1054 260.727 50.4791 260.739 50.8839C260.739 51.0915 260.739 51.3095 260.75 51.5275C260.75 51.9219 260.761 52.3164 260.772 52.7316C261.016 64.9387 261.483 86.0312 264.449 88.1591C267.704 90.4843 298.776 90.8891 325.326 90.9825C351.877 91.0656 378.683 92.2281 380.682 84.4845L380.671 84.443Z" fill="#A0643C"/>
<path d="M448.345 124.478C448.19 121.447 448.123 118.686 448.023 116.164C447.501 102.234 446.29 95.8602 426.549 95.0402C403.254 94.0748 350.897 92.3309 335.111 95.0402C329.046 96.0886 328.846 100.282 328.846 111.192C328.846 111.918 328.846 112.676 328.846 113.465C328.846 113.942 328.846 114.441 328.846 114.939V115.022C328.846 127.551 329.046 145.291 333.856 148.072C338.866 150.969 421.284 150.969 431.048 149.619C438.525 148.581 445.268 145.955 447.568 135.928C447.59 135.834 447.612 135.751 447.634 135.668C447.634 135.668 447.634 135.668 447.623 135.679C448.29 132.658 448.556 128.983 448.334 124.489L448.345 124.478Z" fill="#A0643C"/>
<path d="M515.701 62.592C515.568 59.9762 515.49 57.5576 515.412 55.3259C515.412 55.1286 515.401 54.921 515.39 54.7238C515.39 54.4435 515.368 54.1633 515.357 53.883C515.357 53.6443 515.335 53.4159 515.324 53.1875C515.324 52.9488 515.301 52.6997 515.29 52.4713C515.29 52.2222 515.268 51.9731 515.257 51.7239C515.257 51.5163 515.235 51.3087 515.224 51.1011C515.201 50.7586 515.179 50.4264 515.157 50.0942C515.146 49.9385 515.135 49.7725 515.124 49.6168C515.101 49.2638 515.068 48.9213 515.035 48.5787C515.024 48.423 515.001 48.2673 514.99 48.1116C514.968 47.8625 514.935 47.6134 514.913 47.3746C514.89 47.2086 514.868 47.0425 514.846 46.8764C514.813 46.6584 514.79 46.4404 514.757 46.2225C514.735 46.0564 514.701 45.8903 514.668 45.7242C514.635 45.5166 514.59 45.3194 514.557 45.1221C514.524 44.9561 514.49 44.8004 514.457 44.6447C514.413 44.4474 514.368 44.2606 514.324 44.0738C514.29 43.9181 514.246 43.7727 514.202 43.617C514.146 43.4302 514.09 43.2433 514.035 43.0565C513.991 42.9215 513.946 42.7762 513.902 42.6413C513.835 42.4441 513.768 42.2572 513.691 42.0704C513.646 41.9562 513.602 41.8316 513.557 41.7174C513.446 41.4579 513.335 41.1984 513.202 40.9493C513.168 40.8974 513.146 40.8351 513.113 40.7832C512.98 40.5237 512.846 40.285 512.702 40.0359C512.646 39.9424 512.58 39.849 512.524 39.766C512.413 39.5999 512.302 39.4234 512.18 39.2677C512.102 39.1639 512.024 39.0705 511.946 38.9771C511.824 38.8318 511.713 38.6864 511.58 38.5411C511.491 38.4477 511.402 38.3543 511.313 38.2609C511.18 38.1259 511.047 37.991 510.902 37.856C510.813 37.773 510.713 37.6796 510.613 37.5965C510.458 37.4616 510.302 37.337 510.147 37.2125C510.047 37.1398 509.947 37.0567 509.847 36.9841C509.669 36.8595 509.48 36.7246 509.291 36.6104C509.191 36.5481 509.103 36.4859 509.003 36.4236C508.769 36.2886 508.525 36.1537 508.28 36.0187C508.203 35.9772 508.136 35.9357 508.069 35.9046C507.392 35.562 506.647 35.261 505.836 34.9911C505.781 34.9704 505.725 34.96 505.67 34.9392C505.314 34.825 504.959 34.7109 504.57 34.6071C504.47 34.5759 504.37 34.5551 504.259 34.524C503.915 34.4306 503.559 34.3475 503.193 34.2645C503.07 34.2333 502.948 34.2126 502.826 34.1815C502.459 34.1088 502.071 34.0257 501.682 33.9635C501.56 33.9427 501.426 33.9219 501.304 33.9012C500.882 33.8285 500.46 33.7662 500.015 33.7039C499.904 33.6832 499.793 33.6728 499.671 33.6521C499.182 33.5898 498.671 33.5275 498.149 33.4756C498.071 33.4756 498.005 33.4652 497.927 33.4548C496.683 33.3303 495.35 33.2472 493.917 33.1849C470.621 32.2196 418.264 30.4757 402.478 33.1849C396.424 34.223 396.224 38.4166 396.213 49.295C396.213 50.0216 396.213 50.7793 396.213 51.5579C396.213 52.8658 396.213 54.2463 396.213 55.658C396.213 55.6892 396.213 55.7203 396.213 55.7514C396.268 68 396.735 83.5703 401.212 86.1653C406.222 89.0614 488.64 89.0614 498.405 87.712C508.169 86.3626 516.69 82.3039 515.69 62.5712L515.701 62.592Z" fill="#A0643C"/>
<path d="M186.852 109.593C186.852 109.593 186.852 109.521 186.852 109.49C186.841 109.105 186.818 108.721 186.785 108.358C186.785 108.327 186.785 108.296 186.785 108.254C186.33 102.068 184.341 97.9364 179.064 97.7496C167.789 97.3551 53.5659 97.1683 46.3118 97.7496C40.1796 98.2374 38.6021 101.891 38.5244 106.645C38.4577 110.829 39.5686 115.884 39.8019 120.409C39.8019 120.441 39.8019 120.482 39.8019 120.513C39.8241 120.939 39.8352 121.364 39.8352 121.811C39.8352 121.894 39.8352 121.987 39.8352 122.07C39.8352 122.579 39.8352 123.098 39.813 123.627C39.813 123.638 39.813 123.658 39.813 123.669C39.7797 124.811 39.713 126.004 39.6353 127.229V127.219C39.0687 136.333 38.0133 147.055 46.3118 150.481C56.832 154.83 133.984 151.685 156.78 152.1C179.575 152.505 183.586 152.505 185.085 134.527C185.719 127.001 186.73 119.403 186.885 113.091C186.885 112.946 186.885 112.79 186.885 112.645C186.885 112.417 186.885 112.188 186.885 111.96C186.885 111.711 186.885 111.462 186.885 111.213C186.885 111.078 186.885 110.932 186.885 110.787C186.885 110.372 186.874 109.977 186.852 109.573V109.593Z" fill="#A0643C"/>
<path d="M-90.9729 93.1099C-95.6609 93.7327 -99.2491 93.1099 -99.749 113.029C-100.249 132.949 -97.2495 148.218 -85.4739 148.218C-73.6984 148.218 15.7291 148.602 21.2391 148.218C26.7492 147.834 31.015 147.242 30.7595 127.915C30.504 108.587 35.2698 95.6219 17.9842 93.878C0.69857 92.1445 -77.9531 91.366 -90.984 93.1099H-90.9729Z" fill="#C55C46"/>
<path d="M46.3014 94.0755C34.8036 94.9993 39.2916 107.03 39.7915 116.704C40.2914 126.379 35.7812 142.426 46.3014 146.776C56.8216 151.115 133.974 147.98 156.769 148.395C179.565 148.8 183.575 148.8 185.075 130.821C186.575 112.843 190.33 94.4699 179.065 94.0859C167.789 93.6914 53.5667 93.5046 46.3125 94.0859L46.3014 94.0755Z" fill="#AE7059"/>
<path d="M200.85 93.7116C193.763 94.0022 193.085 96.4 193.329 107.611C193.574 118.832 193.818 143.972 197.084 146.287C200.339 148.602 231.411 149.028 257.961 149.111C284.512 149.194 311.318 150.356 313.318 142.623C315.317 134.89 317.328 109.168 314.573 102.016C311.818 94.8534 310.574 93.7427 287.767 93.722C264.971 93.7012 205.116 93.5559 200.85 93.722V93.7116Z" fill="#CE886F"/>
<path d="M-23.6194 31.2335C-28.3074 31.8563 -31.8956 31.2335 -32.3955 51.1531C-32.8954 71.0726 -29.896 86.3522 -18.1093 86.3522C-6.32267 86.3522 83.0826 86.7363 88.6038 86.3522C94.1138 85.9681 98.3797 85.3868 98.1242 66.0486C97.8687 46.7103 102.634 33.7559 85.3488 32.0224C68.0632 30.2785 -10.5885 29.5104 -23.6194 31.2439V31.2335Z" fill="#C76B44"/>
<path d="M113.645 32.1992C102.147 33.123 106.635 45.1536 107.135 54.8279C107.635 64.4919 103.125 80.55 113.645 84.8993C124.165 89.2486 201.317 86.1034 224.113 86.5186C246.909 86.9234 250.908 86.9234 252.419 68.945C253.918 50.9562 257.673 32.5936 246.409 32.2096C235.133 31.8255 120.91 31.6283 113.645 32.2096V32.1992Z" fill="#C55C46"/>
<path d="M268.205 31.8357C261.118 32.1264 260.44 34.5138 260.696 45.7348C260.94 56.9558 261.184 82.0965 264.439 84.4217C267.694 86.7468 298.766 87.1516 325.317 87.2347C351.867 87.3177 378.673 88.4803 380.673 80.7367C382.672 73.0035 384.683 47.2814 381.928 40.1295C379.173 32.9775 377.918 31.8565 355.122 31.8357C332.326 31.815 272.46 31.6696 268.205 31.8357Z" fill="#C55C46"/>
<path d="M335.114 91.3663C328.659 92.477 328.848 97.1792 328.848 109.739C328.848 122.299 328.848 141.451 333.858 144.347C338.869 147.253 421.286 147.243 431.051 145.893C440.816 144.544 449.336 140.485 448.337 120.763C447.326 101.041 449.836 92.3317 426.541 91.3663C403.245 90.401 350.888 88.6571 335.103 91.3663H335.114Z" fill="#C76B44"/>
<path d="M402.466 29.4896C396.012 30.6003 396.212 35.2921 396.212 47.8625C396.212 60.4329 396.212 79.5739 401.222 82.47C406.232 85.3661 488.65 85.3661 498.414 84.0166C508.179 82.6672 516.7 78.6086 515.7 58.8759C514.689 39.1535 517.2 30.4446 493.904 29.4793C470.609 28.5139 418.252 26.77 402.466 29.4793V29.4896Z" fill="#AE7059"/>
<g style="mix-blend-mode:overlay" opacity="0.44">
<path d="M85.3493 32.0019C68.0637 30.258 -10.588 29.4899 -23.6189 31.2234C-28.3069 31.8462 -31.8951 31.2234 -32.395 51.1429C-32.4172 52.2121 -32.4395 53.2605 -32.4395 54.3089C-30.7842 51.8695 -29.2401 48.8281 -28.3402 46.0151C-26.2295 39.4133 -18.12 32.9984 -5.77785 33.8496C6.56425 34.7007 67.2083 35.3339 71.0853 35.3339C74.9624 35.3339 95.414 39.1019 95.414 40.6797C95.414 41.4582 96.9582 46.3161 98.5246 50.5513C98.7578 39.9739 97.4692 33.2371 85.3604 32.0123L85.3493 32.0019Z" fill="white"/>
<path d="M246.409 32.1993C235.133 31.8048 120.91 31.618 113.645 32.1993C102.147 33.1231 106.635 45.1537 107.135 54.828C107.224 56.6238 107.146 58.6479 107.024 60.7759C108.802 59.852 108.102 50.4165 110.568 45.7039C113.034 40.9913 110.212 40.6799 119.377 40.0467C128.542 39.4135 120.788 37.2129 119.377 35.9569C117.967 34.7009 175.789 37.5243 208.227 37.5243C240.665 37.5243 248.064 34.0677 249.13 38.4689C249.73 40.9809 252.063 47.51 253.952 52.6378C254.807 41.2819 254.185 32.4588 246.409 32.1889V32.1993Z" fill="white"/>
<path d="M381.926 40.1191C379.171 32.9672 377.916 31.8461 355.12 31.8254C332.325 31.8046 272.458 31.6593 268.203 31.8254C261.116 32.116 260.438 34.5138 260.694 45.7244C260.716 46.7105 260.738 47.8108 260.76 48.9838C263.582 43.1813 263.227 36.5795 284.378 36.2681C305.53 35.9567 364.063 35.0121 371.817 37.2127C379.571 39.4133 378.16 48.2156 379.571 52.6168C380.238 54.6825 381.671 58.2948 383.004 61.5646C383.504 52.8245 383.37 43.8975 381.915 40.1295L381.926 40.1191Z" fill="white"/>
<path d="M398.267 47.8934C398.622 40.9802 416.597 33.465 430.35 33.766C444.102 34.0671 482.884 34.7003 490.638 33.766C498.392 32.8214 500.514 35.022 499.448 38.79C498.392 42.558 511.434 43.1912 512.145 46.6478C512.434 48.0387 513.856 50.395 515.456 52.7202C514.934 37.3264 514.611 30.3509 493.904 29.4894C470.609 28.524 418.252 26.7802 402.466 29.4894C396.012 30.6001 396.212 35.2919 396.212 47.8623C396.212 49.2013 396.212 50.613 396.212 52.0663C397.211 51.8483 398.111 50.8207 398.256 47.9038L398.267 47.8934Z" fill="white"/>
</g>
<g style="mix-blend-mode:overlay" opacity="0.33">
<path d="M17.9947 93.8367C0.709114 92.1033 -77.9426 91.3247 -90.9735 93.0582C-95.6615 93.681 -99.2497 93.0582 -99.7496 112.978C-99.794 114.815 -99.8162 116.611 -99.794 118.365C-98.1499 111.846 -96.3947 104.995 -95.8725 103.48C-94.8172 100.418 -53.3028 98.0615 -30.5627 98.5286C-7.8226 98.9957 13.8622 98.0614 9.36302 101.829C4.86388 105.597 18.6168 107.725 23.116 109.137C25.8377 109.988 28.8815 115.583 30.8811 119.87C31.4255 105.016 32.7586 95.3211 17.9836 93.8367H17.9947Z" fill="white"/>
<path d="M179.052 94.0341C167.776 93.6397 53.5536 93.4528 46.2994 94.0341C34.8016 94.9579 39.2896 106.989 39.7895 116.663C39.9006 118.718 39.7784 121.074 39.6229 123.535C39.634 123.472 41.6448 114.784 41.9114 108.442C42.178 102.079 63.0629 100.895 110.132 100.895C157.201 100.895 178.585 96.6499 180.063 100.895C181.318 104.508 184.695 114.12 186.273 118.479C187.517 105.265 187.739 94.3351 179.074 94.0341H179.052Z" fill="white"/>
<path d="M314.573 101.964C311.818 94.802 310.574 93.6913 287.767 93.6705C264.971 93.6498 205.116 93.4941 200.85 93.6705C193.763 93.9612 193.085 96.359 193.329 107.57C193.351 108.815 193.385 110.237 193.418 111.784C194.196 110.102 194.796 108.545 194.996 107.497C195.784 103.49 219.591 99.4834 240.742 99.4834C261.894 99.4834 297.598 98.3001 300.498 100.895C303.408 103.49 310.496 107.03 313.195 109.853C314.228 110.933 315.128 114.13 315.884 117.742C316.028 111.037 315.706 104.923 314.573 101.975V101.964Z" fill="white"/>
<path d="M400.999 94.9992C427.439 94.5321 430.882 96.1825 435.37 99.0059C439.87 101.829 444.213 108.514 446.213 113.185C446.768 114.493 447.413 113.985 448.024 112.448C447.501 98.5181 446.291 92.1446 426.55 91.3246C403.254 90.3592 350.898 88.6154 335.112 91.3246C328.657 92.4353 328.846 97.1375 328.846 109.698C328.846 110.715 328.846 111.784 328.846 112.884C330.057 108.659 331.535 104.31 333.023 102.068C336.456 96.878 374.538 95.4663 400.977 94.9992H400.999Z" fill="white"/>
</g>
<g style="mix-blend-mode:multiply">
<path d="M-18.1202 86.3013C-6.34463 86.3013 83.0717 86.6854 88.5929 86.3013C93.192 85.9795 96.9135 85.5124 97.88 74.1461C89.9815 75.9108 66.2527 80.4677 35.6363 80.0732C-1.3789 79.6061 -4.20058 79.1286 -7.73324 77.5612C-11.2548 75.9938 -14.2542 76.7723 -22.3638 75.9938C-25.3077 75.7032 -28.2516 74.416 -30.8066 72.8798C-28.8626 81.132 -24.9744 86.3013 -18.1313 86.3013H-18.1202Z" fill="#AE7059"/>
<path d="M113.644 84.8586C124.165 89.2082 201.317 86.0628 224.112 86.478C241.82 86.7998 248.185 86.8621 250.852 78.4535C247.952 79.4501 244.331 80.3221 239.954 80.5505C227.789 81.1837 135.773 84.1631 122.376 82.907C114.489 82.1699 110.034 79.7927 107.557 77.8411C108.512 80.9657 110.334 83.4883 113.644 84.8586Z" fill="#AE7059"/>
<path d="M325.312 87.1941C351.863 87.2771 378.669 88.4398 380.668 80.6956C381.046 79.2215 381.435 77.1038 381.779 74.5812C373.725 78.4637 362.85 82.5226 352.951 82.2216C334.266 81.6506 282.087 81.1731 272.922 80.706C267.99 80.4464 264.546 79.0554 262.324 77.7059C262.835 81.2146 263.513 83.7164 264.435 84.3808C267.69 86.7061 298.762 87.111 325.312 87.2044V87.1941Z" fill="#AE7059"/>
<path d="M401.212 82.4393C406.222 85.3354 488.639 85.3354 498.404 83.9859C505.925 82.9479 512.713 80.2906 514.968 70.118C511.057 74.0936 505.436 78.9308 500.859 79.7716C493.105 81.1833 470.543 82.2836 466.132 80.4048C461.722 78.5156 448.325 80.4048 440.215 81.3494C432.106 82.294 419.586 81.9826 417.12 81.1937C414.653 80.4048 411.832 78.8374 407.421 79.6263C404.733 80.1038 400.267 75.6091 397.201 72.028C397.912 77.2181 399.123 81.2456 401.212 82.46V82.4393Z" fill="#AE7059"/>
</g>
<g style="mix-blend-mode:multiply">
<path d="M190.851 56.2917C192.362 55.6896 216.69 51.3815 228.244 48.8693C239.797 46.3571 243.074 50.9351 243.074 50.9351C243.074 50.9351 232.854 53.0113 228.777 53.2189C224.7 53.4162 183.13 59.3437 190.84 56.3021L190.851 56.2917Z" fill="#AE7059"/>
</g>
<g style="mix-blend-mode:multiply">
<path d="M408.688 79.2107C409.399 78.9305 420.93 76.8854 426.395 75.6916C431.872 74.4978 433.416 76.6674 433.416 76.6674C433.416 76.6674 428.573 77.6536 426.651 77.747C424.718 77.8405 405.033 80.6537 408.688 79.2107Z" fill="#AE7059"/>
</g>
<path opacity="0.24" d="M14.4852 98.0299C16.5959 98.9745 20.8285 99.7634 22.0616 101.486C23.2947 103.21 26.4718 108.597 26.4718 108.597C26.4718 108.597 27.5272 101.486 27.5272 100.698C27.5272 99.9087 24.7055 96.7843 23.2947 96.5351C21.8838 96.2964 -35.583 93.5145 -35.0609 94.2722C-34.5277 95.0404 14.4741 98.0195 14.4741 98.0195L14.4852 98.0299Z" fill="white"/>
<path d="M101.926 71.3116C101.926 71.3116 102.459 84.4426 99.2816 87.2244C96.1044 90.0063 104.569 91.8955 105.103 88.5946C105.636 85.2937 105.103 63.7653 102.992 53.5512C100.881 43.3371 101.937 59.2083 101.937 71.3116H101.926Z" fill="#A0643C"/>
<path d="M136.831 155.536C127.843 154.436 69.2545 154.747 57.5567 154.28C45.87 153.813 40.0489 152.235 39.5157 147.055C38.9824 141.865 38.7158 137.194 38.5047 126.098C38.2826 115.001 34.9721 104.445 35.1165 117.731C35.1165 117.731 36.083 150.73 33.0502 152.816C30.0064 154.903 -23.4057 154.436 -23.228 154.903C-23.0502 155.37 -36.2699 156.47 -9.29728 157.415C17.6754 158.359 42.3596 157.415 79.3748 157.415C116.39 157.415 145.84 156.626 136.842 155.526L136.831 155.536Z" fill="#A0643C"/>
<path d="M259.351 83.5286C257.407 77.124 255.74 56.2287 254.729 75.5566C254.729 75.5566 256.64 87.5354 250.852 89.8813C245.064 92.2272 265.516 91.459 267.46 91.0542C269.404 90.6494 261.295 89.9331 259.351 83.5286Z" fill="#A0643C"/>
<path d="M320.874 113.932C320.874 113.932 321.285 145.882 315.919 149.214C310.553 152.546 326.95 150.667 327.483 141.232C328.017 131.807 319.552 83.3209 320.874 113.922V113.932Z" fill="#A0643C"/>
<path d="M505.45 88.6046C500.162 88.3036 418.578 89.7153 420.833 89.871C424.532 90.1305 438.019 91.2619 443.573 93.6286C449.128 95.9849 447.539 97.6353 448.428 107.061C449.317 116.486 452.294 116.257 452.038 103.926C451.772 91.5941 455.738 91.9782 464.469 91.5007C473.19 91.0232 510.749 88.916 505.45 88.6046Z" fill="#A0643C"/>
<g style="mix-blend-mode:overlay" opacity="0.28">
<path d="M90.2923 58.3771C83.1493 58.0345 52.7439 54.8167 63.5863 54.2977C74.4287 53.7891 92.1475 52.6057 91.0922 49.0661C90.0368 45.5264 94.7804 40.627 85.5377 40.108C85.5377 40.108 42.968 37.5129 8.06353 37.5129C-26.8409 37.5129 -13.088 40.8761 -5.95603 42.2567C0.364986 43.4815 -11.9549 46.0974 -15.7875 46.3153C-10.5218 46.8759 13.4625 50.2909 26.3045 50.2598C41.1128 50.2286 -2.52335 56.0312 -15.7431 57.1418C-28.9628 58.2525 10.1742 68.778 50.8887 67.522C91.6143 66.266 97.4243 58.7092 90.2923 58.3563V58.3771Z" fill="white"/>
<path d="M307.263 123.523C300.12 123.181 280.557 119.444 291.399 118.935C302.242 118.427 309.118 117.752 308.063 114.223C307.008 110.683 296.298 104.953 287.056 104.434C287.056 104.434 278.257 114.513 240.965 105.659C207.238 97.656 203.872 106.033 211.015 107.413C218.158 108.794 201.494 111.96 200.172 111.431C198.85 110.912 201.683 119.735 216.491 119.704C231.3 119.672 214.458 121.188 201.228 122.288C188.008 123.399 227.145 133.924 267.859 132.668C308.585 131.412 314.395 123.856 307.263 123.503V123.523Z" fill="white"/>
<path d="M376.408 62.0933C374.819 56.8617 356.311 60.3183 351.557 59.5294C346.802 58.7405 364.776 56.4361 369.009 50.2806C373.242 44.1252 373.708 35.8107 355.256 37.5234C335.538 39.3607 297.311 40.5441 281.748 40.3676C266.184 40.1911 276.993 47.5195 281.748 46.2947C286.502 45.0698 276.127 48.4226 273.649 50.2806C271.172 52.1387 282.525 68.2176 322.062 70.3144C361.599 72.4112 377.996 67.3249 376.408 62.0829V62.0933Z" fill="white"/>
<path d="M170.143 102.244C160.245 103.594 56.965 106.355 52.7324 111.534C48.4999 116.704 42.1567 125.693 56.054 123.96C69.9625 122.226 115.665 116.268 166.433 117.742C166.433 117.742 162.734 122.859 138.45 126.108C114.165 129.347 63.8415 135.596 62.775 139.333C61.7196 143.069 86.5705 138.419 112.677 136.436C138.783 134.454 180.708 135.118 180.03 127.343C179.353 119.569 180.03 100.895 170.132 102.244H170.143Z" fill="white"/>
<path d="M417.132 101.134C393.336 101.372 339.913 102.431 338.336 103.926C336.747 105.41 338.869 110.663 341.513 113.932C344.157 117.202 429.83 119.34 428.774 122.039C427.719 124.738 360.021 123.908 352.089 122.911C344.157 121.915 344.69 135.855 349.978 136.426C355.266 136.997 412.91 135.201 426.663 134.682C440.416 134.163 440.705 121.759 441.472 113.932C442.238 106.106 436.162 100.947 417.143 101.134H417.132Z" fill="white"/>
<path d="M505.959 57.1631C503.86 48.8382 496.461 50.2084 480.598 52.5854C464.734 54.9729 491.173 38.0013 489.063 37.5238C486.952 37.0567 420.842 31.8666 415.021 37.5238C409.2 43.181 419.776 50.3018 426.652 50.281C433.529 50.2499 421.364 54.2151 413.955 59.5402C406.545 64.8652 398.546 74.3734 411.844 72.8683C416.565 72.3389 443.271 68.7993 447.659 67.5329C452.036 66.2769 439.217 74.0516 441.527 77.4667C443.838 80.8818 465.789 71.4358 469.489 72.8579C473.188 74.28 488.385 76.5325 496.461 77.4667C504.537 78.3905 508.059 65.4672 505.959 57.1527V57.1631Z" fill="white"/>
<path d="M246.31 70.1062C247.898 66.3901 249.487 54.972 246.31 54.3076C243.133 53.6433 192.364 62.0409 186.888 62.0928C181.411 62.1447 159.037 60.1621 172.79 58.3871C186.543 56.612 228.846 42.277 228.846 42.277C241.988 37.9589 128.365 45.0693 118.845 46.6574C109.325 48.2352 114.613 57.8058 113.802 60.7745C112.991 63.7432 135.242 61.1066 138.452 60.7745C141.663 60.4423 119.9 68.1755 119.367 72.8881C118.834 77.5903 144.229 73.3656 168.38 72.8881C192.542 72.4106 244.71 73.8431 246.288 70.1166L246.31 70.1062Z" fill="white"/>
<path d="M19.4299 113.933C6.21014 113.901 0.922256 105.981 0.922256 105.981C0.922256 105.981 -28.1056 102.888 -47.2019 101.134C-66.3094 99.3692 -87.3943 100.947 -91.0936 108.608C-94.7929 116.268 -96.9147 127.935 -91.0936 126.109C-85.2725 124.282 -60.4216 113.974 -54.0784 113.943C-47.7352 113.912 -33.7711 117.524 -33.7711 117.524C-17.5853 117.202 -7.53169 117.524 -7.53169 117.524C-7.53169 117.524 -10.4978 120.223 -24.1952 121.427C-37.8926 122.631 -83.9283 133.447 -76.9407 133.572C-69.9421 133.696 -15.4746 134.579 4.09943 131.309C23.6624 128.039 32.6607 113.964 19.441 113.933H19.4299Z" fill="white"/>
</g>
<path d="M587.056 112.728C587.056 112.334 587.034 111.939 587.011 111.566V111.545C586.634 103.594 584.156 98.5906 573.881 97.5526C556.595 95.8191 477.943 95.0406 464.912 96.7844C460.224 97.4072 456.636 96.7844 456.136 116.704C456.136 116.808 456.136 116.901 456.136 117.005C456.125 117.711 456.103 118.417 456.103 119.112C456.103 119.32 456.103 119.527 456.103 119.725C455.981 138.16 459.247 151.934 470.422 151.934C482.198 151.934 571.625 152.318 577.135 151.934C580.813 151.675 583.934 151.322 585.534 145.374C585.578 145.208 585.623 145.042 585.667 144.865C585.667 144.834 585.678 144.793 585.689 144.762C586.023 143.371 586.278 141.71 586.456 139.696C586.456 139.696 586.445 139.696 586.434 139.696C586.623 137.454 586.7 134.797 586.667 131.62C586.589 125.984 586.945 120.898 587.056 116.465C587.056 116.195 587.067 115.925 587.078 115.656C587.078 115.51 587.078 115.365 587.078 115.22C587.078 114.908 587.078 114.607 587.078 114.306C587.078 114.192 587.078 114.078 587.078 113.964C587.078 113.631 587.078 113.299 587.078 112.967C587.078 112.884 587.078 112.811 587.078 112.728H587.056Z" fill="#A0643C"/>
<path d="M871.8 117.337C871.8 117.098 871.8 116.859 871.8 116.621C871.8 116.195 871.778 115.769 871.767 115.354C871.767 115.333 871.767 115.323 871.767 115.302C871.756 114.877 871.733 114.451 871.722 114.036C871.722 113.994 871.722 113.953 871.722 113.911C871.7 113.507 871.678 113.102 871.656 112.707C871.656 112.707 871.656 112.686 871.656 112.676C871.456 109.707 871.089 107.237 870.478 105.669C867.723 98.5072 866.479 97.3965 843.672 97.3757C820.876 97.355 761.021 97.1993 756.755 97.3757C750.545 97.6249 749.257 99.5036 749.201 107.507C749.201 108.649 749.201 109.915 749.246 111.316C749.49 122.537 749.734 147.678 753 149.993C756.255 152.308 787.327 152.733 813.878 152.816C840.428 152.899 867.234 154.062 869.234 146.329C869.234 146.308 869.234 146.287 869.245 146.266C869.245 146.266 869.245 146.266 869.245 146.256C869.623 144.782 870.012 142.664 870.356 140.142C871.122 134.526 871.733 126.97 871.822 120.202C871.822 119.828 871.822 119.465 871.822 119.101C871.822 118.998 871.822 118.894 871.822 118.79C871.822 118.489 871.822 118.178 871.822 117.877C871.822 117.7 871.822 117.524 871.822 117.337H871.8Z" fill="#A0643C"/>
<path d="M537.776 90.058C549.552 90.058 638.968 90.4421 644.489 90.058C649.999 89.674 654.265 89.0927 654.01 69.7544C653.921 62.8101 654.465 56.6962 654.421 51.6203C654.421 51.5165 654.421 51.4127 654.421 51.3089C654.421 51.0805 654.421 50.8417 654.409 50.6134C654.409 50.4681 654.409 50.3331 654.398 50.1878C654.387 49.866 654.376 49.5442 654.354 49.2328C654.343 49.0356 654.332 48.8384 654.321 48.6515C654.309 48.4751 654.287 48.2986 654.276 48.1325C654.265 47.9561 654.243 47.7796 654.221 47.6031C654.209 47.4474 654.187 47.2814 654.165 47.1257C654.132 46.835 654.087 46.5444 654.043 46.2537C654.021 46.1292 653.998 45.9942 653.976 45.8696C653.943 45.6724 653.898 45.4856 653.865 45.2883C653.843 45.1638 653.81 45.0288 653.776 44.9043C653.721 44.6552 653.654 44.406 653.587 44.1673C653.554 44.0635 653.532 43.9701 653.498 43.8663C653.432 43.6379 653.354 43.4199 653.276 43.2123C653.243 43.1085 653.199 43.0151 653.165 42.9113C653.087 42.7037 652.999 42.5065 652.91 42.2989C652.876 42.2366 652.854 42.1639 652.821 42.1017C652.699 41.8525 652.565 41.6034 652.421 41.3646C652.376 41.292 652.332 41.2193 652.288 41.1467C652.177 40.9598 652.054 40.773 651.921 40.5965C651.877 40.5342 651.832 40.4719 651.788 40.42C651.621 40.1917 651.432 39.9737 651.243 39.7557C651.21 39.7142 651.177 39.6831 651.132 39.6415C650.966 39.4651 650.788 39.2886 650.599 39.1122C650.543 39.0603 650.499 39.0187 650.443 38.9668C649.988 38.5724 649.477 38.1987 648.911 37.8665C648.855 37.8354 648.799 37.8043 648.744 37.7731C648.466 37.6174 648.188 37.4721 647.888 37.3268C647.877 37.3268 647.855 37.3164 647.844 37.306C647.511 37.1503 647.166 37.0154 646.811 36.8804C646.766 36.8701 646.722 36.8493 646.689 36.8389C646.355 36.7143 646 36.6001 645.644 36.4963C645.611 36.4963 645.578 36.4756 645.533 36.4652C644.733 36.2368 643.845 36.05 642.901 35.9047C642.856 35.9047 642.812 35.8943 642.767 35.8839C642.29 35.8113 641.79 35.749 641.268 35.6971C623.982 33.9532 545.33 33.1851 532.299 34.9186C527.611 35.5414 524.023 34.9186 523.523 54.8381C523.501 55.9073 523.479 56.9453 523.479 57.9729C523.479 57.9729 523.479 57.9937 523.479 58.0041C523.379 76.3562 526.656 90.0373 537.809 90.0373L537.776 90.058Z" fill="#A0643C"/>
<path d="M663.028 58.5442C663.05 58.9386 663.061 59.3538 663.061 59.769C663.061 59.8832 663.061 59.987 663.061 60.1012C663.061 60.506 663.061 60.9316 663.05 61.3572V61.3883C663.039 61.8451 663.017 62.3122 662.995 62.7793C662.995 62.8831 662.995 62.9765 662.983 63.0803C662.961 63.537 662.939 64.0042 662.906 64.4816C662.361 73.7719 660.962 85.0759 669.527 88.6155C680.047 92.9648 757.199 89.8196 779.995 90.2348C802.79 90.6397 806.789 90.6397 808.3 72.6612C808.822 66.3501 809.633 59.987 809.967 54.3817C809.967 54.2883 809.967 54.1949 809.978 54.0911C810.011 53.5409 810.033 53.0012 810.055 52.4614C810.055 52.3472 810.055 52.233 810.067 52.1189C810.089 51.496 810.111 50.8836 810.111 50.2919V50.2504C810.111 49.6899 810.111 49.1501 810.111 48.6207C810.111 48.4858 810.111 48.3405 810.1 48.2055C810.089 47.7488 810.067 47.3128 810.044 46.8769C810.044 46.773 810.044 46.6693 810.033 46.5758C810 46.0672 809.955 45.569 809.889 45.0811C809.878 44.9669 809.855 44.8631 809.844 44.7593C809.8 44.3856 809.733 44.0119 809.678 43.659C809.656 43.5241 809.633 43.3891 809.6 43.2646C809.522 42.8597 809.433 42.4757 809.333 42.102C809.333 42.0605 809.311 42.0086 809.3 41.9671C809.189 41.5622 809.056 41.1885 808.922 40.8252C808.878 40.711 808.833 40.6072 808.789 40.4931C808.678 40.2335 808.556 39.9741 808.434 39.7249C808.378 39.6211 808.334 39.5173 808.278 39.4239C808.1 39.1125 807.911 38.8115 807.7 38.5416C807.656 38.4793 807.6 38.4274 807.545 38.3651C807.378 38.1575 807.189 37.9499 807 37.7631C806.912 37.68 806.823 37.6074 806.734 37.5243C806.545 37.3583 806.334 37.2025 806.123 37.0572C806.045 37.0053 805.978 36.9534 805.89 36.9015C805.601 36.7354 805.301 36.5797 804.979 36.4552C804.868 36.4137 804.756 36.3825 804.645 36.341C804.401 36.2579 804.157 36.1853 803.89 36.1334C803.757 36.1023 803.623 36.0711 803.49 36.0503C803.157 35.9984 802.812 35.9569 802.446 35.9362C802.39 35.9362 802.346 35.9258 802.29 35.9154C791.015 35.5313 676.792 35.3341 669.527 35.9154C663.417 36.4033 661.817 40.0363 661.739 44.7801C661.673 48.9633 662.783 54.0184 663.017 58.5442H663.028Z" fill="#A0643C"/>
<path d="M936.567 84.4429C937.578 80.5295 938.589 72.0282 938.989 63.6618C938.989 63.6203 938.989 63.5684 938.989 63.5268C939.011 63.039 939.033 62.5511 939.056 62.0736C939.056 61.9802 939.056 61.8971 939.056 61.8037C939.067 61.3678 939.089 60.9318 939.1 60.4958C939.1 60.3713 939.1 60.2571 939.1 60.1325C939.1 59.7381 939.122 59.3333 939.122 58.9388C939.122 58.7935 939.122 58.6378 939.122 58.4924C939.122 58.1291 939.122 57.7659 939.133 57.4129C939.133 57.2468 939.133 57.0807 939.133 56.9043C939.133 56.5721 939.133 56.24 939.133 55.9078C939.133 55.7313 939.133 55.5549 939.133 55.368C939.133 55.0566 939.133 54.7452 939.122 54.4442C939.122 54.2573 939.122 54.0601 939.111 53.8733C939.111 53.593 939.089 53.3128 939.089 53.0325C939.089 52.8353 939.078 52.6381 939.067 52.4512C939.056 52.1917 939.044 51.9322 939.033 51.6727C939.022 51.4755 939.011 51.2782 939 51.0914C938.989 50.8526 938.967 50.6139 938.956 50.3752C938.944 50.178 938.922 49.9807 938.911 49.7939C938.889 49.5759 938.867 49.3579 938.845 49.1503C938.822 48.9531 938.811 48.7662 938.789 48.5794C938.767 48.3822 938.745 48.185 938.722 47.9981C938.7 47.8113 938.678 47.6244 938.656 47.448C938.633 47.2715 938.6 47.095 938.578 46.929C938.545 46.7525 938.522 46.576 938.489 46.3996C938.456 46.2439 938.422 46.0985 938.4 45.9428C938.367 45.7767 938.334 45.6003 938.3 45.4446C938.267 45.3097 938.234 45.1851 938.2 45.0605C938.156 44.9048 938.122 44.7387 938.078 44.5934C938.056 44.5 938.022 44.4273 937.989 44.3339C937.934 44.1678 937.889 44.0018 937.834 43.8564C935.079 36.7045 933.823 35.5834 911.028 35.5627C888.232 35.5419 828.365 35.3966 824.111 35.5627C817.901 35.8118 816.612 37.6802 816.557 45.6626C816.557 46.8044 816.557 48.0708 816.601 49.4721C816.601 49.5551 816.601 49.6485 816.601 49.7316C816.601 50.1053 816.612 50.479 816.623 50.8838C816.623 51.0914 816.623 51.3094 816.634 51.5274C816.634 51.9218 816.646 52.3163 816.657 52.7315C816.901 64.9385 817.368 86.031 820.334 88.159C823.589 90.4841 854.661 90.889 881.211 90.9824C907.762 91.0654 934.568 92.228 936.567 84.4844V84.4429Z" fill="#A0643C"/>
<path d="M742.746 109.593C742.746 109.593 742.746 109.521 742.746 109.489C742.735 109.105 742.713 108.721 742.68 108.358C742.68 108.327 742.68 108.296 742.68 108.254C742.213 102.068 740.236 97.9363 734.959 97.7494C723.683 97.355 609.46 97.1682 602.206 97.7494C596.074 98.2373 594.486 101.891 594.419 106.645C594.352 110.828 595.463 115.884 595.696 120.409C595.696 120.441 595.696 120.482 595.696 120.513C595.719 120.939 595.73 121.364 595.73 121.811C595.73 121.894 595.73 121.987 595.73 122.07C595.73 122.579 595.73 123.098 595.708 123.627C595.708 123.638 595.708 123.658 595.708 123.669C595.674 124.811 595.608 126.004 595.53 127.229V127.219C594.963 136.333 593.908 147.055 602.206 150.481C612.727 154.83 689.879 151.685 712.674 152.1C735.47 152.505 739.48 152.505 740.98 134.526C741.613 127.001 742.635 119.402 742.78 113.091C742.78 112.946 742.78 112.79 742.78 112.645C742.78 112.417 742.78 112.188 742.78 111.96C742.78 111.711 742.78 111.462 742.78 111.213C742.78 111.078 742.78 110.932 742.78 110.787C742.78 110.372 742.768 109.977 742.746 109.572V109.593Z" fill="#A0643C"/>
<path d="M464.92 93.1099C460.232 93.7327 456.643 93.1099 456.144 113.029C455.644 132.949 458.643 148.218 470.419 148.218C482.194 148.218 571.622 148.602 577.132 148.218C582.642 147.834 586.908 147.242 586.652 127.915C586.397 108.587 591.162 95.6219 573.877 93.878C556.591 92.1445 477.939 91.366 464.909 93.1099H464.92Z" fill="#C55C46"/>
<path d="M602.184 94.0755C590.686 94.9993 595.174 107.03 595.674 116.704C596.174 126.379 591.664 142.426 602.184 146.776C612.704 151.115 689.856 147.98 712.652 148.395C735.448 148.8 739.458 148.8 740.958 130.821C742.458 112.843 746.212 94.4699 734.948 94.0859C723.672 93.6914 609.449 93.5046 602.195 94.0859L602.184 94.0755Z" fill="#AE7059"/>
<path d="M756.746 93.7116C749.659 94.0022 748.981 96.4 749.237 107.611C749.481 118.832 749.725 143.972 752.991 146.287C756.246 148.602 787.318 149.028 813.869 149.111C840.419 149.194 867.225 150.356 869.225 142.623C871.225 134.89 873.235 109.168 870.469 102.016C867.714 94.8534 866.47 93.7427 843.663 93.722C820.867 93.7012 761.012 93.5559 756.746 93.722V93.7116Z" fill="#CE886F"/>
<path d="M532.263 31.2335C527.575 31.8563 523.987 31.2335 523.487 51.1531C522.987 71.0726 525.987 86.3522 537.773 86.3522C549.56 86.3522 638.965 86.7363 644.487 86.3522C649.997 85.9681 654.262 85.3868 654.007 66.0486C653.751 46.7103 658.517 33.7559 641.232 32.0224C623.946 30.2785 545.294 29.5104 532.263 31.2439V31.2335Z" fill="#C55C46"/>
<path d="M669.54 32.1992C658.042 33.123 662.53 45.1536 663.03 54.8279C663.53 64.4919 659.019 80.55 669.54 84.8993C680.06 89.2486 757.212 86.1034 780.008 86.5186C802.803 86.9234 806.803 86.9234 808.313 68.945C809.813 50.9562 813.568 32.5936 802.303 32.2096C791.028 31.8255 676.805 31.6283 669.54 32.2096V32.1992Z" fill="#C1765F"/>
<path d="M824.096 31.8357C817.008 32.1264 816.331 34.5138 816.586 45.7348C816.831 56.9558 817.075 82.0965 820.33 84.4217C823.585 86.7468 854.657 87.1516 881.207 87.2347C907.758 87.3177 934.564 88.4803 936.563 80.7367C938.563 73.0035 940.574 47.2814 937.819 40.1295C935.064 32.9775 933.808 31.8565 911.013 31.8357C888.217 31.815 828.351 31.6696 824.096 31.8357Z" fill="#C86C45"/>
<g style="mix-blend-mode:overlay" opacity="0.44">
<path d="M641.232 32.0014C623.946 30.2575 545.295 29.4894 532.264 31.2229C527.576 31.8457 523.988 31.2229 523.488 51.1424C523.466 52.2116 523.443 53.26 523.443 54.3084C525.099 51.869 526.632 48.8277 527.543 46.0146C529.653 39.4128 537.763 32.9979 550.105 33.8491C562.447 34.7002 623.091 35.3334 626.968 35.3334C630.845 35.3334 651.297 39.1014 651.297 40.6792C651.297 41.4577 652.841 46.3157 654.407 50.5508C654.641 39.9734 653.352 33.2367 641.243 32.0118L641.232 32.0014Z" fill="white"/>
</g>
<g style="mix-blend-mode:overlay" opacity="0.44">
<path d="M802.29 32.1992C791.014 31.8047 676.791 31.6179 669.526 32.1992C658.028 33.123 662.516 45.1536 663.016 54.8279C663.105 56.6237 663.016 58.6478 662.905 60.7758C664.682 59.8519 663.983 50.4164 666.449 45.7038C668.915 40.9912 666.093 40.6797 675.258 40.0466C684.423 39.4134 676.669 37.2128 675.258 35.9568C673.847 34.7008 731.67 37.5242 764.108 37.5242C796.546 37.5242 803.945 34.0676 805.011 38.4688C805.611 40.9808 807.944 47.5099 809.833 52.6377C810.688 41.2818 810.066 32.4586 802.29 32.1888V32.1992Z" fill="white"/>
</g>
<g style="mix-blend-mode:overlay" opacity="0.44">
<path d="M937.819 40.119C935.064 32.9671 933.808 31.846 911.013 31.8252C888.217 31.8045 828.351 31.6591 824.096 31.8252C817.008 32.1159 816.331 34.5137 816.586 45.7243C816.608 46.7104 816.631 47.8107 816.653 48.9836C819.475 43.1811 819.119 36.5793 840.271 36.2679C861.422 35.9565 919.956 35.0119 927.71 37.2125C935.464 39.4131 934.053 48.2155 935.464 52.6167C936.13 54.6824 937.563 58.2947 938.896 61.5644C939.396 52.8243 939.263 43.8974 937.808 40.1294L937.819 40.119Z" fill="white"/>
</g>
<g style="mix-blend-mode:overlay" opacity="0.33">
<path d="M573.881 93.8367C556.595 92.1033 477.943 91.3247 464.912 93.0582C460.224 93.681 456.636 93.0582 456.136 112.978C456.092 114.815 456.081 116.611 456.092 118.365C457.736 111.846 459.491 104.995 460.013 103.48C461.069 100.418 502.583 98.0615 525.323 98.5286C548.063 98.9957 569.748 98.0614 565.249 101.829C560.75 105.597 574.503 107.725 579.002 109.137C581.724 109.988 584.779 115.583 586.767 119.87C587.311 105.016 588.644 95.3211 573.869 93.8367H573.881Z" fill="white"/>
<path d="M734.95 94.0341C723.675 93.6397 609.452 93.4528 602.198 94.0341C590.7 94.9579 595.188 106.989 595.688 116.663C595.799 118.718 595.677 121.074 595.521 123.535C595.532 123.472 597.543 114.784 597.81 108.442C598.076 102.079 618.961 100.895 666.03 100.895C713.099 100.895 734.484 96.6499 735.961 100.895C737.217 104.508 740.594 114.12 742.171 118.479C743.415 105.265 743.638 94.3351 734.973 94.0341H734.95Z" fill="white"/>
<path d="M870.469 101.964C867.714 94.802 866.47 93.6913 843.663 93.6705C820.867 93.6498 761.012 93.4941 756.746 93.6705C749.659 93.9612 748.981 96.359 749.237 107.57C749.259 108.815 749.292 110.237 749.325 111.784C750.103 110.102 750.692 108.545 750.903 107.497C751.692 103.49 775.498 99.4834 796.65 99.4834C817.801 99.4834 853.506 98.3001 856.416 100.895C859.327 103.49 866.414 107.03 869.103 109.853C870.136 110.933 871.036 114.13 871.791 117.742C871.935 111.037 871.613 104.923 870.48 101.975L870.469 101.964Z" fill="white"/>
</g>
<g style="mix-blend-mode:multiply">
<path d="M537.772 86.3005C549.548 86.3005 638.964 86.6845 644.485 86.3005C649.085 85.9787 652.806 85.5116 653.773 74.1453C645.874 75.9099 622.145 80.4668 591.529 80.0724C554.514 79.6052 551.692 79.1277 548.159 77.5603C544.638 75.9929 541.638 76.7715 533.529 75.993C530.585 75.7023 527.641 74.4152 525.086 72.8789C527.03 81.1311 530.907 86.3005 537.761 86.3005H537.772Z" fill="#AE7059"/>
</g>
<g style="mix-blend-mode:multiply">
<path d="M669.537 84.8582C680.057 89.2079 757.209 86.0624 780.005 86.4777C797.713 86.7995 804.078 86.8617 806.744 78.4532C803.845 79.4497 800.223 80.3217 795.846 80.5501C783.682 81.1834 691.666 84.1627 678.269 82.9066C670.381 82.1696 665.927 79.7923 663.449 77.8407C664.405 80.9654 666.226 83.488 669.537 84.8582Z" fill="#AE7059"/>
</g>
<g style="mix-blend-mode:multiply">
<path d="M881.211 87.1937C907.761 87.2768 934.567 88.4394 936.567 80.6952C936.944 79.2211 937.333 77.1034 937.678 74.5808C929.624 78.4633 918.748 82.5223 908.85 82.2212C890.165 81.6503 837.986 81.1727 828.821 80.7056C823.888 80.4461 820.444 79.055 818.223 77.7055C818.734 81.2143 819.411 83.7161 820.333 84.3804C823.588 86.7058 854.66 87.1106 881.211 87.2041V87.1937Z" fill="#AE7059"/>
</g>
<path d="M495.64 94.8848C494.64 95.2274 478.71 97.2413 471.134 98.4974C463.557 99.7535 461.613 96.6911 461.613 96.6911C461.613 96.6911 468.312 95.6738 470.956 95.6738C473.6 95.6738 500.75 93.1616 495.64 94.8848Z" fill="#C55C46"/>
<g style="mix-blend-mode:multiply">
<path d="M746.734 56.2917C748.245 55.6896 772.573 51.3815 784.127 48.8693C795.68 46.3571 798.957 50.9351 798.957 50.9351C798.957 50.9351 788.737 53.0113 784.66 53.2189C780.583 53.4162 739.013 59.3437 746.723 56.3021L746.734 56.2917Z" fill="#AE7059"/>
</g>
<path opacity="0.24" d="M570.38 98.0299C572.491 98.9745 576.723 99.7634 577.956 101.486C579.189 103.21 582.366 108.597 582.366 108.597C582.366 108.597 583.422 101.486 583.422 100.698C583.422 99.9087 580.6 96.7843 579.189 96.5351C577.778 96.2964 520.311 93.5145 520.834 94.2722C521.367 95.0404 570.369 98.0195 570.369 98.0195L570.38 98.0299Z" fill="white"/>
<path d="M657.818 71.3116C657.818 71.3116 658.351 84.4426 655.174 87.2244C651.997 90.0063 660.462 91.8955 660.995 88.5946C661.529 85.2937 660.995 63.7653 658.885 53.5512C656.774 43.3371 657.829 59.2083 657.829 71.3116H657.818Z" fill="#A0643C"/>
<path d="M692.723 155.536C683.736 154.436 625.147 154.747 613.449 154.28C601.763 153.813 595.941 152.235 595.408 147.055C594.875 141.865 594.62 137.194 594.397 126.098C594.175 115.001 590.865 104.445 591.009 117.731C591.009 117.731 591.976 150.73 588.943 152.816C585.899 154.903 532.487 154.436 532.665 154.903C532.842 155.37 519.623 156.47 546.595 157.415C573.568 158.359 598.252 157.415 635.267 157.415C672.283 157.415 701.732 156.626 692.734 155.525L692.723 155.536Z" fill="#A0643C"/>
<path d="M815.245 83.5291C813.301 77.1245 811.635 56.2292 810.624 75.5571C810.624 75.5571 812.535 87.5358 806.747 89.8818C800.959 92.2173 821.411 91.4595 823.355 91.0547C825.299 90.6499 817.189 89.9336 815.245 83.5291Z" fill="#A0643C"/>
<g style="mix-blend-mode:overlay" opacity="0.28">
<path d="M646.175 58.3775C639.032 58.0349 608.627 54.8171 619.469 54.2981C630.312 53.7894 648.03 52.6061 646.975 49.0664C645.92 45.5268 650.663 40.6274 641.42 40.1083C641.42 40.1083 598.851 37.5133 563.946 37.5133C529.042 37.5133 542.795 40.8765 549.927 42.2571C556.248 43.4819 543.928 46.0977 540.095 46.3157C545.361 46.8762 569.345 50.2913 582.187 50.2602C596.996 50.229 553.359 56.0315 540.14 57.1422C526.92 58.2529 566.057 68.7784 606.772 67.5224C647.497 66.2664 653.307 58.7096 646.175 58.3567V58.3775Z" fill="white"/>
</g>
<g style="mix-blend-mode:overlay" opacity="0.28">
<path d="M539.087 46.2953C539.243 46.3576 539.598 46.368 540.098 46.3368C539.298 46.2537 538.91 46.2329 539.087 46.2953Z" fill="white"/>
</g>
<g style="mix-blend-mode:overlay" opacity="0.28">
<path d="M863.158 123.523C856.015 123.181 836.452 119.444 847.294 118.935C858.136 118.427 865.013 117.752 863.957 114.223C862.902 110.683 852.193 104.953 842.95 104.434C842.95 104.434 834.152 114.513 796.859 105.659C763.132 97.6559 759.766 106.033 766.909 107.413C774.052 108.794 757.389 111.96 756.067 111.43C754.745 110.911 757.578 119.735 772.386 119.703C787.194 119.672 770.342 121.188 757.122 122.288C743.902 123.399 783.039 133.924 823.754 132.668C864.48 131.412 870.29 123.855 863.158 123.503V123.523Z" fill="white"/>
</g>
<g style="mix-blend-mode:overlay" opacity="0.28">
<path d="M932.29 62.0936C930.702 56.862 912.194 60.3186 907.44 59.5297C902.685 58.7409 920.659 56.4364 924.892 50.281C929.124 44.1256 929.591 35.8111 911.139 37.5238C891.42 39.3611 853.194 40.5444 837.631 40.368C822.067 40.1915 832.865 47.5199 837.631 46.295C842.385 45.0702 832.009 48.423 829.532 50.281C827.055 52.1391 838.408 68.218 877.945 70.3148C917.482 72.4115 933.879 67.3253 932.29 62.0833V62.0936Z" fill="white"/>
</g>
<g style="mix-blend-mode:overlay" opacity="0.28">
<path d="M726.04 102.245C716.142 103.594 612.862 106.355 608.629 111.535C604.397 116.704 598.053 125.693 611.962 123.96C625.87 122.226 671.573 116.268 722.341 117.742C722.341 117.742 718.642 122.86 694.357 126.109C670.073 129.347 619.749 135.596 618.683 139.333C617.627 143.07 642.478 138.419 668.584 136.437C694.691 134.454 736.616 135.119 735.938 127.344C735.261 119.569 735.938 100.895 726.04 102.245Z" fill="white"/>
</g>
<g style="mix-blend-mode:overlay" opacity="0.28">
<path d="M802.191 70.1065C803.78 66.3904 805.368 54.9722 802.191 54.3079C799.014 53.6435 748.246 62.0411 742.78 62.093C737.304 62.1449 714.93 60.1623 728.683 58.3873C742.436 56.6123 784.739 42.2773 784.739 42.2773C797.881 37.9591 684.258 45.0695 674.738 46.6577C665.217 48.2355 670.505 57.806 669.694 60.7747C668.883 63.7435 691.123 61.1069 694.345 60.7747C697.567 60.4426 675.793 68.1758 675.26 72.8884C674.727 77.5906 700.111 73.3659 724.273 72.8884C748.435 72.4109 800.603 73.8434 802.18 70.1169L802.191 70.1065Z" fill="white"/>
</g>
<g style="mix-blend-mode:overlay" opacity="0.28">
<path d="M575.311 113.932C562.091 113.901 556.803 105.981 556.803 105.981C556.803 105.981 527.786 102.888 508.679 101.134C489.571 99.3691 468.487 100.947 464.787 108.607C461.088 116.268 458.966 127.935 464.787 126.108C470.608 124.281 495.459 113.974 501.802 113.943C508.146 113.912 522.11 117.524 522.11 117.524C538.296 117.202 548.349 117.524 548.349 117.524C548.349 117.524 545.383 120.223 531.686 121.427C517.988 122.631 471.953 133.447 478.94 133.572C485.939 133.696 540.406 134.579 559.98 131.309C579.543 128.039 588.542 113.964 575.322 113.932H575.311Z" fill="white"/>
</g>
</g>
</g>
</g>
</svg>
