<svg width="72" height="73" viewBox="0 0 72 73" fill="none" xmlns="http://www.w3.org/2000/svg">
<path d="M71 1.10938H1V71.1094H71V1.10938Z" fill="#401B00" stroke="white" stroke-width="2"/>
<path d="M17.0556 28.6601V25.3969H20.3187V22.1338H10.5293V18.8706H23.5819V35.1863H10.5293V31.9232H20.3187V28.6601H17.0556Z" fill="white"/>
<path d="M42.7154 35.1863H26.3997V18.8706H42.7154V35.1863ZM39.4523 22.1338H29.6628V31.9232H39.4523V22.1338Z" fill="white"/>
<path d="M61.8487 35.1863H45.533V18.8706H61.8487V35.1863ZM58.5856 22.1338H48.7961V31.9232H58.5856V22.1338Z" fill="white"/>
<path d="M10.4031 38.041L25.2543 52.892H10.4031V38.041Z" fill="white"/>
<path d="M25.2543 38.041V52.892H10.4031L25.2543 38.041Z" fill="white"/>
<path d="M35.6492 41.0112L46.0442 52.8919H35.6708L35.6492 41.0112Z" fill="white"/>
<path d="M46.0442 49.9218V38.041L35.6492 38.0411L46.0442 49.9218Z" fill="white"/>
<path d="M49.0149 38.041H57.9255C60.3856 38.041 62.3807 40.0357 62.3807 42.4963V48.4366C62.3807 50.8973 60.3856 52.892 57.9255 52.892H49.0149V38.041Z" fill="white"/>
<path d="M28.2231 38.041H32.6785V52.892H28.2231V38.041Z" fill="white"/>
</svg>
