<svg width="59" height="40" viewBox="0 0 59 40" fill="none" xmlns="http://www.w3.org/2000/svg">
<path d="M7.5 11.9V8.1H11.25V4.3H0V0.5H15V19.5H0V15.7H11.25V11.9H7.5Z" fill="#401B00"/>
<path d="M37 19.5H18V0.5H37V19.5ZM33.2 4.3H21.8V15.7H33.2V4.3Z" fill="#401B00"/>
<path d="M59 19.5H40V0.5H59V19.5ZM55.2 4.3H43.8V15.7H55.2V4.3Z" fill="#401B00"/>
<path d="M0 22.5L17 39.5H0V22.5Z" fill="#401B00"/>
<path d="M17 22.5V39.5H0L17 22.5Z" fill="#401B00"/>
<path d="M29 25.5L41 39.5H29.025L29 25.5Z" fill="#401B00"/>
<path d="M41 36.5V22.5L29 22.5001L41 36.5Z" fill="#401B00"/>
<path d="M44 22.5H54C56.761 22.5 59 24.7833 59 27.5999V34.3999C59 37.2167 56.761 39.5 54 39.5H44V22.5Z" fill="#401B00"/>
<path d="M20 22.5H25V39.5H20V22.5Z" fill="#401B00"/>
</svg>
