<svg width="1920" height="1000" viewBox="0 0 1920 1000" fill="none" xmlns="http://www.w3.org/2000/svg">
<path d="M0 576H1921" stroke="#F1884D" stroke-width="2" stroke-dasharray="12 12"/>
<path d="M1 136H1922" stroke="#F1884D" stroke-width="2" stroke-dasharray="12 12"/>
<path d="M1723 1189L1723 9.05991e-06" stroke="#F1884D" stroke-width="2" stroke-dasharray="12 12"/>
<path d="M1213 1189L1213 157" stroke="#F1884D" stroke-width="2" stroke-dasharray="12 12"/>
<path d="M703 1189L703 156" stroke="#F1884D" stroke-width="2" stroke-dasharray="12 12"/>
<path d="M193 1190L193 -3.85046e-05" stroke="#F1884D" stroke-width="2" stroke-dasharray="12 12"/>
<path d="M1723 997C1723 997 1724.81 1006.12 1728.84 1010.16C1732.88 1014.19 1742 1016 1742 1016C1742 1016 1732.88 1018.81 1728.84 1022.84C1724.81 1026.88 1723 1036 1723 1036C1723 1036 1720.19 1026.88 1716.16 1022.84C1712.12 1018.81 1703 1016 1703 1016C1703 1016 1712.12 1014.19 1716.16 1010.16C1720.19 1006.12 1723 997 1723 997Z" fill="#F1884D"/>
<path d="M1213 997C1213 997 1214.81 1006.12 1218.84 1010.16C1222.88 1014.19 1232 1016 1232 1016C1232 1016 1222.88 1018.81 1218.84 1022.84C1214.81 1026.88 1213 1036 1213 1036C1213 1036 1210.19 1026.88 1206.16 1022.84C1202.12 1018.81 1193 1016 1193 1016C1193 1016 1202.12 1014.19 1206.16 1010.16C1210.19 1006.12 1213 997 1213 997Z" fill="#F1884D"/>
<path d="M703 997C703 997 704.809 1006.12 708.843 1010.16C712.876 1014.19 722 1016 722 1016C722 1016 712.876 1018.81 708.843 1022.84C704.809 1026.88 703 1036 703 1036C703 1036 700.191 1026.88 696.157 1022.84C692.124 1018.81 683 1016 683 1016C683 1016 692.124 1014.19 696.157 1010.16C700.191 1006.12 703 997 703 997Z" fill="#F1884D"/>
<path d="M193 997C193 997 194.809 1006.12 198.843 1010.16C202.876 1014.19 212 1016 212 1016C212 1016 202.876 1018.81 198.843 1022.84C194.809 1026.88 193 1036 193 1036C193 1036 190.191 1026.88 186.157 1022.84C182.124 1018.81 173 1016 173 1016C173 1016 182.124 1014.19 186.157 1010.16C190.191 1006.12 193 997 193 997Z" fill="#F1884D"/>
<path d="M1723 557C1723 557 1724.81 566.124 1728.84 570.157C1732.88 574.191 1742 576 1742 576C1742 576 1732.88 578.809 1728.84 582.843C1724.81 586.876 1723 596 1723 596C1723 596 1720.19 586.876 1716.16 582.843C1712.12 578.809 1703 576 1703 576C1703 576 1712.12 574.191 1716.16 570.157C1720.19 566.124 1723 557 1723 557Z" fill="#F1884D"/>
<path d="M1213 557C1213 557 1214.81 566.124 1218.84 570.157C1222.88 574.191 1232 576 1232 576C1232 576 1222.88 578.809 1218.84 582.843C1214.81 586.876 1213 596 1213 596C1213 596 1210.19 586.876 1206.16 582.843C1202.12 578.809 1193 576 1193 576C1193 576 1202.12 574.191 1206.16 570.157C1210.19 566.124 1213 557 1213 557Z" fill="#F1884D"/>
<path d="M703 557C703 557 704.809 566.124 708.843 570.157C712.876 574.191 722 576 722 576C722 576 712.876 578.809 708.843 582.843C704.809 586.876 703 596 703 596C703 596 700.191 586.876 696.157 582.843C692.124 578.809 683 576 683 576C683 576 692.124 574.191 696.157 570.157C700.191 566.124 703 557 703 557Z" fill="#F1884D"/>
<path d="M193 557C193 557 194.809 566.124 198.843 570.157C202.876 574.191 212 576 212 576C212 576 202.876 578.809 198.843 582.843C194.809 586.876 193 596 193 596C193 596 190.191 586.876 186.157 582.843C182.124 578.809 173 576 173 576C173 576 182.124 574.191 186.157 570.157C190.191 566.124 193 557 193 557Z" fill="#F1884D"/>
<path d="M1723 117C1723 117 1724.81 126.124 1728.84 130.157C1732.88 134.191 1742 136 1742 136C1742 136 1732.88 138.809 1728.84 142.843C1724.81 146.876 1723 156 1723 156C1723 156 1720.19 146.876 1716.16 142.843C1712.12 138.809 1703 136 1703 136C1703 136 1712.12 134.191 1716.16 130.157C1720.19 126.124 1723 117 1723 117Z" fill="#F1884D"/>
<path d="M1213 117C1213 117 1214.81 126.124 1218.84 130.157C1222.88 134.191 1232 136 1232 136C1232 136 1222.88 138.809 1218.84 142.843C1214.81 146.876 1213 156 1213 156C1213 156 1210.19 146.876 1206.16 142.843C1202.12 138.809 1193 136 1193 136C1193 136 1202.12 134.191 1206.16 130.157C1210.19 126.124 1213 117 1213 117Z" fill="#F1884D"/>
<path d="M703 117C703 117 704.809 126.124 708.843 130.157C712.876 134.191 722 136 722 136C722 136 712.876 138.809 708.843 142.843C704.809 146.876 703 156 703 156C703 156 700.191 146.876 696.157 142.843C692.124 138.809 683 136 683 136C683 136 692.124 134.191 696.157 130.157C700.191 126.124 703 117 703 117Z" fill="#F1884D"/>
<path d="M193 117C193 117 194.809 126.124 198.843 130.157C202.876 134.191 212 136 212 136C212 136 202.876 138.809 198.843 142.843C194.809 146.876 193 156 193 156C193 156 190.191 146.876 186.157 142.843C182.124 138.809 173 136 173 136C173 136 182.124 134.191 186.157 130.157C190.191 126.124 193 117 193 117Z" fill="#F1884D"/>
</svg>
