<svg width="72" height="72" viewBox="0 0 72 72" fill="none" xmlns="http://www.w3.org/2000/svg">
                                <circle cx="36" cy="36" r="36" fill="#F1884D"/>
                                <path d="M45.285 26.9649C50.9283 30.8012 53.75 32.7194 53.75 36.0001C53.75 39.2809 50.9283 41.199 45.285 45.0354C43.7271 46.0944 42.1819 47.0915 40.7621 47.9224C39.5164 48.6513 38.1057 49.4053 36.6452 50.1454C31.015 52.9985 28.2 54.4251 25.6752 52.8456C23.1504 51.2662 22.9209 47.9598 22.462 41.3471C22.3322 39.477 22.25 37.6437 22.25 36.0001C22.25 34.3566 22.3322 32.5233 22.462 30.6532C22.9209 24.0404 23.1504 20.7341 25.6752 19.1546C28.2 17.5752 31.015 19.0018 36.6452 21.8548C38.1057 22.595 39.5164 23.349 40.7621 24.0779C42.1819 24.9088 43.7271 25.9059 45.285 26.9649Z" fill="white"/>
                            </svg>